<svg width="48" height="48" viewBox="0 0 48 48" fill="none" xmlns="http://www.w3.org/2000/svg">
<path fill-rule="evenodd" clip-rule="evenodd" d="M5 7C5 5.89543 5.89543 5 7 5H20C21.1046 5 22 5.89543 22 7V41C22 42.1046 21.1046 43 20 43H7C5.89543 43 5 42.1046 5 41V7ZM9 9V39H18V9H9Z" fill="#4E5969"/>
<path fill-rule="evenodd" clip-rule="evenodd" d="M26 7C26 5.89543 26.8954 5 28 5H41C42.1046 5 43 5.89543 43 7V20C43 21.1046 42.1046 22 41 22H28C26.8954 22 26 21.1046 26 20V7ZM30 9V18H39V9H30Z" fill="#4E5969"/>
<path fill-rule="evenodd" clip-rule="evenodd" d="M26 28C26 26.8954 26.8954 26 28 26H41C42.1046 26 43 26.8954 43 28V41C43 42.1046 42.1046 43 41 43H28C26.8954 43 26 42.1046 26 41V28ZM30 30V39H39V30H30Z" fill="#4E5969"/>
</svg>
