<svg width="48" height="48" viewBox="0 0 48 48" fill="none" xmlns="http://www.w3.org/2000/svg">
<path fill-rule="evenodd" clip-rule="evenodd" d="M26.3136 9.85581C25.5325 10.6369 25.5325 11.9032 26.3136 12.6842L37.6273 23.9979L26.3136 35.3116C25.5325 36.0927 25.5325 37.359 26.3136 38.1401C27.0946 38.9211 28.361 38.9211 29.142 38.1401L41.8699 25.4122C42.651 24.6311 42.651 23.3648 41.8699 22.5837L29.142 9.85581C28.3609 9.07476 27.0946 9.07476 26.3136 9.85581Z" fill="#4E5969"/>
<path fill-rule="evenodd" clip-rule="evenodd" d="M2.99988 24C2.99988 25.1046 3.89531 26 4.99988 26L39.2954 26C40.3999 26 41.2954 25.1046 41.2954 24C41.2954 22.8954 40.3999 22 39.2954 22L4.99988 22C3.89531 22 2.99988 22.8955 2.99988 24Z" fill="#4E5969"/>
</svg>
