<svg width="48" height="48" viewBox="0 0 48 48" fill="none" xmlns="http://www.w3.org/2000/svg">
<path fill-rule="evenodd" clip-rule="evenodd" d="M22.4558 4.72909C23.2593 3.76486 24.7404 3.7647 25.5441 4.72909L35.5227 16.7035C36.6136 18.0125 35.6829 20.0002 33.9786 20.0002L14.0213 20.0002C12.3171 20.0002 11.3862 18.0126 12.4772 16.7035L22.4558 4.72909ZM23.9999 9.12434L18.27 16.0002L29.7299 16.0002L23.9999 9.12434Z" fill="#4E5969"/>
<path d="M23.9999 6.00024L33.9999 18.0002L13.9999 18.0002L23.9999 6.00024Z" fill="#4E5969"/>
<path fill-rule="evenodd" clip-rule="evenodd" d="M27.9999 44.0002H19.9999L19.9999 14.0002H27.9999L27.9999 44.0002Z" fill="#4E5969"/>
<path d="M25.9999 42.0002H21.9999L21.9999 16.0002H25.9999L25.9999 42.0002Z" fill="#4E5969"/>
</svg>
