<svg width="48" height="48" viewBox="0 0 48 48" fill="none" xmlns="http://www.w3.org/2000/svg">
<path fill-rule="evenodd" clip-rule="evenodd" d="M21.6863 9.85581C22.4674 10.6369 22.4674 11.9032 21.6863 12.6842L10.3726 23.9979L21.6863 35.3116C22.4674 36.0927 22.4674 37.359 21.6863 38.1401C20.9053 38.9211 19.6389 38.9211 18.8579 38.1401L6.12998 25.4122C5.34893 24.6311 5.34893 23.3648 6.12998 22.5837L18.8579 9.85581C19.6389 9.07476 20.9053 9.07476 21.6863 9.85581Z" fill="#4E5969"/>
<path fill-rule="evenodd" clip-rule="evenodd" d="M45 24C45 25.1046 44.1046 26 43 26L8.70453 26C7.59996 26 6.70453 25.1046 6.70453 24C6.70453 22.8954 7.59996 22 8.70453 22L43 22C44.1046 22 45 22.8955 45 24Z" fill="#4E5969"/>
</svg>
