<svg width="48" height="48" viewBox="0 0 48 48" fill="none" xmlns="http://www.w3.org/2000/svg">
<path fill-rule="evenodd" clip-rule="evenodd" d="M9.85581 21.6861C10.6369 22.4671 11.9032 22.4671 12.6842 21.6861L23.9979 10.3724L35.3116 21.6861C36.0927 22.4671 37.359 22.4671 38.1401 21.6861C38.9211 20.905 38.9211 19.6387 38.1401 18.8577L25.4122 6.12973C24.6311 5.34868 23.3648 5.34868 22.5837 6.12973L9.85581 18.8577C9.07476 19.6387 9.07476 20.905 9.85581 21.6861Z" fill="#4E5969"/>
<path fill-rule="evenodd" clip-rule="evenodd" d="M24 44.9998C25.1046 44.9998 26 44.1043 26 42.9998V8.70428C26 7.59971 25.1046 6.70428 24 6.70428C22.8954 6.70428 22 7.59971 22 8.70428V42.9998C22 44.1043 22.8954 44.9998 24 44.9998Z" fill="#4E5969"/>
</svg>
