<svg width="48" height="48" viewBox="0 0 48 48" fill="none" xmlns="http://www.w3.org/2000/svg">
<path fill-rule="evenodd" clip-rule="evenodd" d="M9.85581 26.3137C10.6369 25.5326 11.9032 25.5326 12.6842 26.3137L23.9979 37.6274L35.3116 26.3137C36.0927 25.5326 37.359 25.5326 38.1401 26.3137C38.9211 27.0947 38.9211 28.3611 38.1401 29.1421L25.4122 41.87C24.6311 42.6511 23.3648 42.6511 22.5837 41.87L9.85581 29.1421C9.07476 28.3611 9.07476 27.0947 9.85581 26.3137Z" fill="#4E5969"/>
<path fill-rule="evenodd" clip-rule="evenodd" d="M24 3C25.1046 3 26 3.89543 26 5V39.2955C26 40.4001 25.1046 41.2955 24 41.2955C22.8954 41.2955 22 40.4001 22 39.2955V5C22 3.89543 22.8954 3 24 3Z" fill="#4E5969"/>
</svg>
