<svg width="48" height="48" viewBox="0 0 48 48" fill="none" xmlns="http://www.w3.org/2000/svg">
<path fill-rule="evenodd" clip-rule="evenodd" d="M15 8C13.8954 8 13 8.89543 13 10C13 11.1046 13.8954 12 15 12C16.1046 12 17 11.1046 17 10C17 8.89543 16.1046 8 15 8ZM9 10C9 6.68629 11.6863 4 15 4C18.3137 4 21 6.68629 21 10C21 13.3137 18.3137 16 15 16C11.6863 16 9 13.3137 9 10Z" fill="#4E5969"/>
<path fill-rule="evenodd" clip-rule="evenodd" d="M34 8C32.8954 8 32 8.89543 32 10C32 11.1046 32.8954 12 34 12C35.1046 12 36 11.1046 36 10C36 8.89543 35.1046 8 34 8ZM28 10C28 6.68629 30.6863 4 34 4C37.3137 4 40 6.68629 40 10C40 13.3137 37.3137 16 34 16C30.6863 16 28 13.3137 28 10Z" fill="#4E5969"/>
<path fill-rule="evenodd" clip-rule="evenodd" d="M15 36C13.8954 36 13 36.8954 13 38C13 39.1046 13.8954 40 15 40C16.1046 40 17 39.1046 17 38C17 36.8954 16.1046 36 15 36ZM9 38C9 34.6863 11.6863 32 15 32C18.3137 32 21 34.6863 21 38C21 41.3137 18.3137 44 15 44C11.6863 44 9 41.3137 9 38Z" fill="#4E5969"/>
<path fill-rule="evenodd" clip-rule="evenodd" d="M13 15H17V24.922C18.4621 24.0907 20.3056 23.2834 22.1116 22.4925C22.6422 22.2601 23.1697 22.0291 23.6833 21.7994C26.06 20.7361 28.2313 19.6642 29.8005 18.4392C31.3686 17.215 32 16.106 32 15H36C36 17.894 34.2564 20.035 32.262 21.5921C30.2687 23.1483 27.69 24.3889 25.3167 25.4506C24.7163 25.7193 24.1316 25.9755 23.5667 26.2231C21.7988 26.998 20.2238 27.6884 18.9594 28.4093C18.1368 28.8783 17.5906 29.2831 17.2689 29.623C17.0569 29.8469 17.009 29.9696 17 30.0053V33.5H13V15ZM17 30.0053C16.9997 30.0122 16.9983 30.0164 16.9983 30.0164C16.9983 30.0164 16.9982 30.0124 17 30.0053Z" fill="#4E5969"/>
</svg>
