<svg width="48" height="48" viewBox="0 0 48 48" fill="none" xmlns="http://www.w3.org/2000/svg">
<path fill-rule="evenodd" clip-rule="evenodd" d="M39.5564 8.4437C40.3374 9.22475 40.3374 10.4911 39.5564 11.2721L11.2721 39.5564C10.4911 40.3374 9.22475 40.3374 8.4437 39.5564C7.66265 38.7753 7.66265 37.509 8.4437 36.728L36.728 8.4437C37.509 7.66265 38.7753 7.66265 39.5564 8.4437Z" fill="#4E5969"/>
<path fill-rule="evenodd" clip-rule="evenodd" d="M8.4437 8.44374C9.22475 7.66269 10.4911 7.66269 11.2721 8.44374L39.5564 36.728C40.3374 37.5091 40.3374 38.7754 39.5564 39.5564C38.7753 40.3375 37.509 40.3375 36.728 39.5564L8.4437 11.2722C7.66265 10.4911 7.66265 9.22479 8.4437 8.44374Z" fill="#4E5969"/>
</svg>
