<svg width="48" height="48" viewBox="0 0 48 48" fill="none" xmlns="http://www.w3.org/2000/svg">
<path fill-rule="evenodd" clip-rule="evenodd" d="M6 7C6 5.34315 7.34314 4 9 4H39C40.6569 4 42 5.34315 42 7V41C42 42.6569 40.6569 44 39 44H9C7.34315 44 6 42.6569 6 41V7ZM10 8V40H38V8H10Z" fill="#4E5969"/>
<path fill-rule="evenodd" clip-rule="evenodd" d="M6 7C6 5.34315 7.34314 4 9 4H39C40.6569 4 42 5.34315 42 7V41C42 42.6569 40.6569 44 39 44H9C7.34315 44 6 42.6569 6 41V7ZM10 8V40H38V8H10Z" fill="#4E5969"/>
<path fill-rule="evenodd" clip-rule="evenodd" d="M32.5901 14.5857C33.657 14.8716 34.2902 15.9683 34.0043 17.0352L29.8632 32.49C29.5773 33.557 28.4807 34.1901 27.4137 33.9042C26.3468 33.6184 25.7136 32.5217 25.9995 31.4548L30.1406 15.9999C30.4265 14.933 31.5232 14.2998 32.5901 14.5857Z" fill="#4E5969"/>
<path fill-rule="evenodd" clip-rule="evenodd" d="M24.4853 15.5858C25.2663 16.3668 25.2663 17.6332 24.4853 18.4142L18.8284 24.0711L24.4853 29.7279C25.2663 30.509 25.2663 31.7753 24.4853 32.5563C23.7042 33.3374 22.4379 33.3374 21.6569 32.5563L13.1716 24.0711L21.6569 15.5858C22.4379 14.8047 23.7042 14.8047 24.4853 15.5858Z" fill="#4E5969"/>
</svg>
