<svg width="48" height="48" viewBox="0 0 48 48" fill="none" xmlns="http://www.w3.org/2000/svg">
<path fill-rule="evenodd" clip-rule="evenodd" d="M27.5472 4.3105C28.635 4.50231 29.3613 5.53963 29.1695 6.62742L22.9182 42.0805C22.7264 43.1683 21.6891 43.8946 20.6013 43.7028C19.5135 43.511 18.7872 42.4737 18.979 41.3859L25.2303 5.93282C25.4221 4.84503 26.4594 4.1187 27.5472 4.3105Z" fill="#4E5969"/>
<path fill-rule="evenodd" clip-rule="evenodd" d="M18.1478 11.2722C18.9289 12.0532 18.9289 13.3196 18.1478 14.1006L8.24835 24.0001L18.1478 33.8996C18.9289 34.6807 18.9289 35.947 18.1478 36.728C17.3668 37.5091 16.1005 37.5091 15.3194 36.728L4.00571 25.4143C3.63064 25.0392 3.41992 24.5305 3.41992 24.0001C3.41992 23.4697 3.63064 22.961 4.00571 22.5859L15.3194 11.2722C16.1005 10.4911 17.3668 10.4911 18.1478 11.2722Z" fill="#4E5969"/>
<path fill-rule="evenodd" clip-rule="evenodd" d="M29.8409 11.2722C30.6219 10.4911 31.8883 10.4911 32.6693 11.2722L43.983 22.5859C44.7641 23.3669 44.7641 24.6333 43.983 25.4143L32.6693 36.728C31.8883 37.5091 30.6219 37.5091 29.8409 36.728C29.0598 35.947 29.0598 34.6807 29.8409 33.8996L39.7404 24.0001L29.8409 14.1006C29.0598 13.3196 29.0598 12.0532 29.8409 11.2722Z" fill="#4E5969"/>
</svg>
