<svg width="48" height="48" viewBox="0 0 48 48" fill="none" xmlns="http://www.w3.org/2000/svg">
<path fill-rule="evenodd" clip-rule="evenodd" d="M23.0642 3.23242C23.6496 2.92253 24.3504 2.92253 24.9358 3.23242L41.9358 12.2324C42.5905 12.579 43 13.2592 43 14V34C43 34.7408 42.5905 35.421 41.9358 35.7676L24.9358 44.7676C24.3504 45.0775 23.6496 45.0775 23.0642 44.7676L6.06422 35.7676C5.4095 35.421 5 34.7408 5 34V14C5 13.2592 5.4095 12.579 6.06422 12.2324L23.0642 3.23242ZM9 17.3218V32.7958L22 39.6782V24.2042L9 17.3218ZM26 24.2042V39.6782L39 32.7958V17.3218L26 24.2042ZM36.7255 14L24 7.26299L11.2745 14L24 20.737L36.7255 14Z" fill="#4E5969"/>
</svg>
