<svg width="48" height="48" viewBox="0 0 48 48" fill="none" xmlns="http://www.w3.org/2000/svg">
<path fill-rule="evenodd" clip-rule="evenodd" d="M24 8C15.1634 8 8 15.1634 8 24C8 32.8366 15.1634 40 24 40C32.8366 40 40 32.8366 40 24C40 15.1634 32.8366 8 24 8ZM4 24C4 12.9543 12.9543 4 24 4C35.0457 4 44 12.9543 44 24C44 35.0457 35.0457 44 24 44C12.9543 44 4 35.0457 4 24Z" fill="#4E5969"/>
<path fill-rule="evenodd" clip-rule="evenodd" d="M24 18C20.6863 18 18 20.6863 18 24C18 27.3137 20.6863 30 24 30C25.523 30 26.9093 29.4351 27.9682 28.5005C28.7963 27.7696 30.0602 27.8484 30.7911 28.6765C31.5221 29.5047 31.4433 30.7685 30.6151 31.4995C28.8535 33.0543 26.5347 34 24 34C18.4772 34 14 29.5228 14 24C14 18.4772 18.4772 14 24 14C26.5347 14 28.8535 14.9457 30.6151 16.5005C31.4433 17.2315 31.5221 18.4953 30.7911 19.3235C30.0602 20.1516 28.7963 20.2304 27.9682 19.4995C26.9093 18.5649 25.523 18 24 18Z" fill="#4E5969"/>
</svg>
