<svg width="48" height="48" viewBox="0 0 48 48" fill="none" xmlns="http://www.w3.org/2000/svg">
<path fill-rule="evenodd" clip-rule="evenodd" d="M18 6C18 4.89543 18.8954 4 20 4H38C40.2091 4 42 5.79086 42 8V30C42 31.1046 41.1046 32 40 32C38.8954 32 38 31.1046 38 30V8H20C18.8954 8 18 7.10457 18 6Z" fill="#4E5969"/>
<path fill-rule="evenodd" clip-rule="evenodd" d="M6 16C6 13.7909 7.79086 12 10 12H30C32.2049 12 34 13.7834 34 15.9968V40.0085C34 42.2254 32.204 44 30.0026 44H9.99552C7.78053 44 6 42.2033 6 40V16ZM30 16H10V40H30V16ZM10.0001 40.0024C10.0005 40.0027 10.0006 40.0028 10.0001 40.0024C9.99921 40.0015 9.99961 40.0013 10.0001 40.0024ZM10.0001 40.0024C10.0001 40.0038 10.0003 40.0042 10.0002 40.0039L10.0001 40.0024C10.0006 40.0028 10.0005 40.0027 10.0001 40.0024Z" fill="#4E5969"/>
</svg>
