<svg width="48" height="48" viewBox="0 0 48 48" fill="none" xmlns="http://www.w3.org/2000/svg">
<path fill-rule="evenodd" clip-rule="evenodd" d="M9 20C9 11.7157 15.7157 5 24 5C32.2843 5 39 11.7157 39 20V28C39 34.677 34.6388 40.3301 28.6148 42.2762C27.5637 42.6157 26.4364 42.0389 26.0968 40.9878C25.7573 39.9367 26.3341 38.8094 27.3852 38.4698C31.8063 37.0416 35 32.8912 35 28V20C35 13.9249 30.0751 9 24 9C17.9249 9 13 13.9249 13 20V31C13 32.1046 12.1046 33 11 33C9.89543 33 9 32.1046 9 31V20Z" fill="#4E5969"/>
<path fill-rule="evenodd" clip-rule="evenodd" d="M18 38C18 36.3431 19.3431 35 21 35H27C28.6569 35 30 36.3431 30 38V40.373C30 41.2407 29.4405 42.0094 28.6148 42.2762C27.1585 42.7466 25.6069 43 24 43H21C19.3431 43 18 41.6569 18 40V38Z" fill="#4E5969"/>
<path fill-rule="evenodd" clip-rule="evenodd" d="M5 22C5 20.3431 6.34315 19 8 19H11C12.1046 19 13 19.8954 13 21C13 22.1046 12.1046 23 11 23H9V27H11C12.1046 27 13 27.8954 13 29C13 30.1046 12.1046 31 11 31H8C6.34315 31 5 29.6569 5 28V22Z" fill="#4E5969"/>
<path fill-rule="evenodd" clip-rule="evenodd" d="M37 18C37.7403 18 38.3866 18.4022 38.7324 19H40C41.6569 19 43 20.3431 43 22V28C43 29.6569 41.6569 31 40 31H37C35.8954 31 35 30.1046 35 29V20C35 18.8954 35.8954 18 37 18Z" fill="#4E5969"/>
</svg>
