<svg width="48" height="48" viewBox="0 0 48 48" fill="none" xmlns="http://www.w3.org/2000/svg">
<path fill-rule="evenodd" clip-rule="evenodd" d="M24 8C18.9214 8 14.8135 10.2683 12.0471 13.6464C8.90476 17.4835 7.52129 22.725 8.49108 27.6106C9.06297 30.4917 10.4536 33.2592 12.8057 35.5748C13.5928 36.3497 13.6028 37.616 12.8278 38.4031C12.0529 39.1902 10.7866 39.2002 9.9995 38.4252C7.05201 35.5236 5.28917 32.0244 4.56763 28.3894C3.35744 22.2927 5.07767 15.8434 8.95242 11.112C12.4188 6.87923 17.6311 4 24 4C30.1528 4 35.2296 6.68784 38.6935 10.6914C41.8602 14.3516 43.6836 19.111 43.8074 23.9488C43.9388 29.0833 42.153 34.3372 38.0005 38.4252C37.2133 39.2002 35.947 39.1902 35.1721 38.4031C34.3972 37.616 34.4071 36.3497 35.1943 35.5748C38.4913 32.329 39.9143 28.1755 39.8087 24.0512C39.7083 20.1285 38.2225 16.2605 35.6685 13.3086C32.9096 10.1198 28.9102 8 24 8Z" fill="#4E5969"/>
<path fill-rule="evenodd" clip-rule="evenodd" d="M8.92874 11.1415C9.6123 10.2738 10.8698 10.1246 11.7375 10.8081L18.2375 15.9289C19.1051 16.6125 19.2544 17.87 18.5708 18.7377C17.8872 19.6053 16.6297 19.7546 15.7621 19.071L9.26208 13.9502C8.39443 13.2666 8.24518 12.0091 8.92874 11.1415Z" fill="#4E5969"/>
<path fill-rule="evenodd" clip-rule="evenodd" d="M17.363 23.773C17.7645 24.802 17.2558 25.9617 16.2267 26.3632L7.25634 29.8632C6.22732 30.2647 5.06766 29.756 4.66617 28.727C4.26468 27.698 4.77339 26.5383 5.8024 26.1368L14.7728 22.6368C15.8018 22.2353 16.9615 22.744 17.363 23.773Z" fill="#4E5969"/>
<path fill-rule="evenodd" clip-rule="evenodd" d="M31.4998 24C31.4998 22.8954 32.3952 22 33.4998 22H41.8081C42.9126 22 43.8081 22.8954 43.8081 24C43.8081 25.1046 42.9126 26 41.8081 26H33.4998C32.3952 26 31.4998 25.1046 31.4998 24Z" fill="#4E5969"/>
<path fill-rule="evenodd" clip-rule="evenodd" d="M38.6752 10.6705C39.4094 11.4957 39.3357 12.7599 38.5105 13.4942L32.3292 18.9942C31.504 19.7284 30.2399 19.6547 29.5056 18.8295C28.7714 18.0043 28.8451 16.7401 29.6703 16.0058L35.8515 10.5058C36.6767 9.7716 37.9409 9.84533 38.6752 10.6705Z" fill="#4E5969"/>
<path fill-rule="evenodd" clip-rule="evenodd" d="M24 4C25.1046 4 26 4.89543 26 6V13.5C26 14.6046 25.1046 15.5 24 15.5C22.8954 15.5 22 14.6046 22 13.5V6C22 4.89543 22.8954 4 24 4Z" fill="#4E5969"/>
<path fill-rule="evenodd" clip-rule="evenodd" d="M24 20C25.1046 20 26 20.8954 26 22V30.2899C28.8915 31.1504 31 33.829 31 37C31 40.866 27.866 44 24 44C20.134 44 17 40.866 17 37C17 33.829 19.1085 31.1504 22 30.2899V22C22 20.8954 22.8954 20 24 20ZM24 34C22.3431 34 21 35.3431 21 37C21 38.6569 22.3431 40 24 40C25.6568 40 27 38.6569 27 37C27 35.3431 25.6568 34 24 34Z" fill="#4E5969"/>
</svg>
