<?xml version="1.0" standalone="no"?><!DOCTYPE svg PUBLIC "-//W3C//DTD SVG 1.1//EN" "http://www.w3.org/Graphics/SVG/1.1/DTD/svg11.dtd"><svg t="1740409486937" class="icon" viewBox="0 0 1024 1024" version="1.1" xmlns="http://www.w3.org/2000/svg" p-id="41248" width="14" height="14" xmlns:xlink="http://www.w3.org/1999/xlink"><path d="M928 448H96c-17.6 0-32-14.4-32-32s14.4-32 32-32h832c17.6 0 32 14.4 32 32s-14.4 32-32 32z m0 192H96c-17.6 0-32-14.4-32-32s14.4-32 32-32h832c17.6 0 32 14.4 32 32s-14.4 32-32 32zM512 336c-17.6 0-32-14.4-32-32V80c0-17.6 14.4-32 32-32s32 14.4 32 32v224c0 17.6-14.4 32-32 32z m-128-99.2c-17.6 0-32-14.4-32-32 0-8 3.2-16 9.6-22.4l128-128c12.8-12.8 32-12.8 44.8 0l128 128c12.8 12.8 12.8 33.6 0 44.8-12.8 12.8-32 12.8-44.8 0L512 121.6l-105.6 105.6c-6.4 6.4-14.4 9.6-22.4 9.6z m22.4 564.8l105.6 105.6 105.6-105.6c12.8-12.8 32-12.8 44.8 0 12.8 12.8 12.8 32 0 44.8l-128 128c-12.8 12.8-32 12.8-44.8 0l-128-128c-6.4-6.4-9.6-14.4-9.6-22.4 0-17.6 14.4-32 32-32 8 0 16 3.2 22.4 9.6z" p-id="41249" fill="currentColor"></path><path d="M512 960c-17.6 0-32-14.4-32-32V704c0-17.6 14.4-32 32-32s32 14.4 32 32v224c0 17.6-14.4 32-32 32z" p-id="41250"></path></svg>