<svg width="48" height="48" viewBox="0 0 48 48" fill="none" xmlns="http://www.w3.org/2000/svg">
<path fill-rule="evenodd" clip-rule="evenodd" d="M14 9V7C14 5.89543 14.8954 5 16 5L32 5C32.5304 5 33.0391 5.21071 33.4142 5.58579C33.7893 5.96086 34 6.46957 34 7V9.00001L43 9.00001C44.1046 9.00001 45 9.89544 45 11C45 12.1046 44.1046 13 43 13L39.5 13V40C39.5 41.6568 38.1569 43 36.5 43L11.5 43C9.84314 43 8.5 41.6569 8.5 40L8.5 13H5C3.89543 13 3 12.1046 3 11C3 9.89543 3.89543 9 5 9L14 9ZM12.5 13V39L35.5 39V13L12.5 13Z" fill="#4E5969"/>
<path fill-rule="evenodd" clip-rule="evenodd" d="M20 18C21.1046 18 22 18.8954 22 20V31C22 32.1046 21.1046 33 20 33C18.8954 33 18 32.1046 18 31V20C18 18.8954 18.8954 18 20 18ZM28 18C29.1046 18 30 18.8954 30 20V31C30 32.1046 29.1046 33 28 33C26.8954 33 26 32.1046 26 31V20C26 18.8954 26.8954 18 28 18Z" fill="#4E5969"/>
</svg>
