<svg width="18" height="18" viewBox="0 0 48 48" fill="none" xmlns="http://www.w3.org/2000/svg">
<path fill-rule="evenodd" clip-rule="evenodd" d="M4 9C4 7.34315 5.34314 6 7 6H41C42.6569 6 44 7.34314 44 9V31C44 32.6569 42.6569 34 41 34H26V38H33C34.1046 38 35 38.8954 35 40C35 41.1046 34.1046 42 33 42H15C13.8954 42 13 41.1046 13 40C13 38.8954 13.8954 38 15 38H22V34H7C5.34315 34 4 32.6569 4 31V9ZM40 30V10H8V30H40Z" fill="#4E5969"/>
<path fill-rule="evenodd" clip-rule="evenodd" d="M29.4113 14.0428C30.0341 14.1736 30.5574 14.5931 30.8207 15.1724L33.3207 20.6724C33.7778 21.678 33.3332 22.8637 32.3276 23.3207C31.322 23.7778 30.1363 23.3332 29.6793 22.3276L28.3054 19.3052L20.8336 25.9905C20.4159 26.3642 19.8606 26.5455 19.3029 26.4903C18.7452 26.435 18.2363 26.1483 17.9 25.7L14.9 21.7C14.2373 20.8163 14.4163 19.5627 15.3 18.9C16.1837 18.2373 17.4373 18.4163 18.1 19.3L19.7916 21.5554L27.6664 14.5095C28.1407 14.0852 28.7885 13.9119 29.4113 14.0428Z" fill="#4E5969"/>
</svg>
