<svg width="48" height="48" viewBox="0 0 48 48" fill="none" xmlns="http://www.w3.org/2000/svg">
<path fill-rule="evenodd" clip-rule="evenodd" d="M26.9585 8.48569C27.7395 9.26674 27.7395 10.5331 26.9585 11.3141L14.2305 24.042L26.9584 36.77C27.7395 37.551 27.7395 38.8173 26.9584 39.5984C26.1774 40.3794 24.9111 40.3794 24.13 39.5984L9.98789 25.4563C9.20684 24.6752 9.20684 23.4089 9.98789 22.6278L24.13 8.48569C24.9111 7.70464 26.1774 7.70464 26.9585 8.48569Z" fill="#4E5969"/>
<path fill-rule="evenodd" clip-rule="evenodd" d="M38.2722 8.48569C39.0532 9.26674 39.0532 10.5331 38.2722 11.3141L25.5442 24.042L38.2722 36.77C39.0532 37.551 39.0532 38.8173 38.2722 39.5984C37.4911 40.3794 36.2248 40.3794 35.4437 39.5984L21.3016 25.4563C20.5206 24.6752 20.5206 23.4089 21.3016 22.6278L35.4437 8.48569C36.2248 7.70464 37.4911 7.70464 38.2722 8.48569Z" fill="#4E5969"/>
</svg>
