<svg width="48" height="48" viewBox="0 0 48 48" fill="none" xmlns="http://www.w3.org/2000/svg">
<path fill-rule="evenodd" clip-rule="evenodd" d="M21.0416 39.5144C20.2606 38.7334 20.2606 37.467 21.0416 36.686L33.7695 23.9581L21.0416 11.2301C20.2606 10.4491 20.2606 9.18275 21.0416 8.40171C21.8226 7.62066 23.089 7.62066 23.87 8.40171L38.0122 22.5438C38.7932 23.3249 38.7932 24.5912 38.0122 25.3723L23.87 39.5144C23.089 40.2955 21.8226 40.2955 21.0416 39.5144Z" fill="#4E5969"/>
<path fill-rule="evenodd" clip-rule="evenodd" d="M9.72788 39.5144C8.94683 38.7334 8.94683 37.467 9.72788 36.686L22.4558 23.9581L9.72788 11.2301C8.94683 10.4491 8.94683 9.18275 9.72788 8.40171C10.5089 7.62066 11.7753 7.62066 12.5563 8.40171L26.6984 22.5438C27.4795 23.3249 27.4795 24.5912 26.6984 25.3723L12.5563 39.5144C11.7753 40.2955 10.5089 40.2955 9.72788 39.5144Z" fill="#4E5969"/>
</svg>
