<svg width="48" height="48" viewBox="0 0 48 48" fill="none" xmlns="http://www.w3.org/2000/svg">
<path fill-rule="evenodd" clip-rule="evenodd" d="M13.5158 20.5858C14.2968 19.8047 15.5632 19.8047 16.3442 20.5858L24.0011 28.2426L31.6579 20.5858C32.439 19.8047 33.7053 19.8047 34.4863 20.5858C35.2674 21.3668 35.2674 22.6332 34.4863 23.4142L25.4153 32.4853C25.0402 32.8604 24.5315 33.0711 24.0011 33.0711C23.4706 33.0711 22.9619 32.8604 22.5869 32.4853L13.5158 23.4142C12.7347 22.6332 12.7347 21.3668 13.5158 20.5858ZM8 32.9289C9.10457 32.9289 10 33.8244 10 34.9289V38.9289H38V34.9289C38 33.8244 38.8954 32.9289 40 32.9289C41.1046 32.9289 42 33.8244 42 34.9289V40.9289C42 42.0335 41.1046 42.9289 40 42.9289H8C6.89543 42.9289 6 42.0335 6 40.9289V34.9289C6 33.8244 6.89543 32.9289 8 32.9289Z" fill="#4E5969"/>
<path fill-rule="evenodd" clip-rule="evenodd" d="M24 3C25.1046 3 26 3.89543 26 5V31C26 32.1046 25.1046 33 24 33C22.8954 33 22 32.1046 22 31V5C22 3.89543 22.8954 3 24 3Z" fill="#4E5969"/>
</svg>
