<svg width="48" height="48" viewBox="0 0 48 48" fill="none" xmlns="http://www.w3.org/2000/svg">
<path fill-rule="evenodd" clip-rule="evenodd" d="M11 8V40H37V17.8284L27.1716 8H11ZM7 7C7 5.34315 8.34314 4 10 4H28C28.5304 4 29.0391 4.21071 29.4142 4.58579L40.4142 15.5858C40.7893 15.9609 41 16.4696 41 17V41C41 42.6569 39.6569 44 38 44H10C8.34315 44 7 42.6569 7 41V7Z" fill="#4E5969"/>
<path fill-rule="evenodd" clip-rule="evenodd" d="M28 4.5C29.1046 4.5 30 5.39543 30 6.5V15H38.5C39.6046 15 40.5 15.8954 40.5 17C40.5 18.1046 39.6046 19 38.5 19H29C27.3431 19 26 17.6569 26 16V6.5C26 5.39543 26.8954 4.5 28 4.5Z" fill="#4E5969"/>
</svg>
