<svg width="48" height="48" viewBox="0 0 48 48" fill="none" xmlns="http://www.w3.org/2000/svg">
<path fill-rule="evenodd" clip-rule="evenodd" d="M27.7985 4.88991C28.9701 3.71834 30.8696 3.71834 32.0411 4.88991L37.6268 10.4756C38.7984 11.6472 38.7984 13.5467 37.6268 14.7182L17.177 35.1681C16.6996 35.6455 16.0751 35.9479 15.4045 36.0264L9.35755 36.7344C7.48368 36.9538 5.87485 35.4096 6.01725 33.5283L6.49487 27.2183C6.54902 26.503 6.85772 25.8307 7.365 25.3234L27.7985 4.88991ZM26.3073 12.0379L30.4788 16.2094L34.0913 12.5969L29.9198 8.42544L26.3073 12.0379ZM27.6504 19.0378L23.4789 14.8664L10.4555 27.8898L10.0974 32.6205L14.5942 32.094L27.6504 19.0378ZM41.9998 43.9996L5.99976 43.9996V39.9996L41.9998 39.9996V43.9996Z" fill="#4E5969"/>
</svg>
