<svg width="48" height="48" viewBox="0 0 48 48" fill="none" xmlns="http://www.w3.org/2000/svg">
<circle cx="24" cy="24" r="20" fill="#4E5969"/>
<path fill-rule="evenodd" clip-rule="evenodd" d="M24 28C22.8954 28 22 27.1046 22 26L22 15C22 13.8954 22.8954 13 24 13C25.1046 13 26 13.8954 26 15L26 26C26 27.1046 25.1046 28 24 28Z" fill="white"/>
<path fill-rule="evenodd" clip-rule="evenodd" d="M26 32C26 33.1046 25.1046 34 24 34C22.8954 34 22 33.1046 22 32C22 30.8954 22.8954 30 24 30C25.1046 30 26 30.8954 26 32Z" fill="white"/>
</svg>
