<svg width="32" height="32" viewBox="0 0 32 32" fill="none" xmlns="http://www.w3.org/2000/svg">
<g clip-path="url(#clip0_2454_12991)">
<path fill-rule="evenodd" clip-rule="evenodd" d="M3.44771 4.78105C3.94781 4.28095 4.62609 4 5.33333 4H26.6667C27.3739 4 28.0522 4.28095 28.5523 4.78105C29.0524 5.28115 29.3333 5.95942 29.3333 6.66667V20C29.3333 20.7072 29.0524 21.3855 28.5523 21.8856C28.0522 22.3857 27.3739 22.6667 26.6667 22.6667H5.33333C4.62609 22.6667 3.94781 22.3857 3.44771 21.8856C2.94762 21.3855 2.66666 20.7072 2.66666 20V6.66667C2.66666 5.95942 2.94762 5.28115 3.44771 4.78105ZM26.6667 6.66667L5.33333 6.66667V20H26.6667V6.66667Z" fill="white"/>
<path fill-rule="evenodd" clip-rule="evenodd" d="M8 26.6667C8 25.9303 8.59695 25.3333 9.33333 25.3333H22.6667C23.403 25.3333 24 25.9303 24 26.6667C24 27.403 23.403 28 22.6667 28H9.33333C8.59695 28 8 27.403 8 26.6667Z" fill="white"/>
<path fill-rule="evenodd" clip-rule="evenodd" d="M12 20C12.7364 20 13.3333 20.597 13.3333 21.3333V26.6667C13.3333 27.403 12.7364 28 12 28C11.2636 28 10.6667 27.403 10.6667 26.6667V21.3333C10.6667 20.597 11.2636 20 12 20Z" fill="white"/>
<path fill-rule="evenodd" clip-rule="evenodd" d="M20 20C20.7364 20 21.3333 20.597 21.3333 21.3333V26.6667C21.3333 27.403 20.7364 28 20 28C19.2636 28 18.6667 27.403 18.6667 26.6667V21.3333C18.6667 20.597 19.2636 20 20 20Z" fill="white"/>
<path fill-rule="evenodd" clip-rule="evenodd" d="M12 9.33333C12.7364 9.33333 13.3333 9.93029 13.3333 10.6667V16C13.3333 16.7364 12.7364 17.3333 12 17.3333C11.2636 17.3333 10.6667 16.7364 10.6667 16V10.6667C10.6667 9.93029 11.2636 9.33333 12 9.33333Z" fill="white"/>
<path fill-rule="evenodd" clip-rule="evenodd" d="M16 13.3333C16.7364 13.3333 17.3333 13.9303 17.3333 14.6667V16C17.3333 16.7364 16.7364 17.3333 16 17.3333C15.2636 17.3333 14.6667 16.7364 14.6667 16V14.6667C14.6667 13.9303 15.2636 13.3333 16 13.3333Z" fill="white"/>
<path fill-rule="evenodd" clip-rule="evenodd" d="M20 12C20.7364 12 21.3333 12.597 21.3333 13.3333V16C21.3333 16.7364 20.7364 17.3333 20 17.3333C19.2636 17.3333 18.6667 16.7364 18.6667 16V13.3333C18.6667 12.597 19.2636 12 20 12Z" fill="white"/>
<path fill-rule="evenodd" clip-rule="evenodd" d="M16 13.3333C16.7364 13.3333 17.3333 13.9303 17.3333 14.6667V16C17.3333 16.7364 16.7364 17.3333 16 17.3333C15.2636 17.3333 14.6667 16.7364 14.6667 16V14.6667C14.6667 13.9303 15.2636 13.3333 16 13.3333Z" fill="white"/>
</g>
<defs>
<clipPath id="clip0_2454_12991">
<rect width="32" height="32" fill="white"/>
</clipPath>
</defs>
</svg>
