<svg width="32" height="32" viewBox="0 0 32 32" fill="none" xmlns="http://www.w3.org/2000/svg">
<g clip-path="url(#clip0_2454_13003)">
<path fill-rule="evenodd" clip-rule="evenodd" d="M10.2761 9.72393C10.7968 10.2446 10.7968 11.0888 10.2761 11.6095L5.88562 16.0001L10.2761 20.3906C10.7968 20.9113 10.7968 21.7555 10.2761 22.2762C9.75544 22.7969 8.91122 22.7969 8.39052 22.2762L3.05719 16.9429C2.53649 16.4222 2.53649 15.578 3.05719 15.0573L8.39052 9.72393C8.91122 9.20323 9.75544 9.20323 10.2761 9.72393Z" fill="white"/>
<path fill-rule="evenodd" clip-rule="evenodd" d="M21.7239 9.72393C22.2446 9.20323 23.0888 9.20323 23.6095 9.72393L28.9428 15.0573C29.4635 15.578 29.4635 16.4222 28.9428 16.9429L23.6095 22.2762C23.0888 22.7969 22.2446 22.7969 21.7239 22.2762C21.2032 21.7555 21.2032 20.9113 21.7239 20.3906L26.1144 16.0001L21.7239 11.6095C21.2032 11.0888 21.2032 10.2446 21.7239 9.72393Z" fill="white"/>
<path fill-rule="evenodd" clip-rule="evenodd" d="M18.99 4.03988C19.7044 4.21848 20.1388 4.94239 19.9602 5.65679L14.6269 26.9901C14.4483 27.7045 13.7243 28.1389 13.0099 27.9603C12.2956 27.7817 11.8612 27.0578 12.0398 26.3434L17.3731 5.01002C17.5517 4.29563 18.2757 3.86128 18.99 4.03988Z" fill="white"/>
</g>
<defs>
<clipPath id="clip0_2454_13003">
<rect width="32" height="32" fill="white"/>
</clipPath>
</defs>
</svg>
