<svg width="32" height="32" viewBox="0 0 32 32" fill="none" xmlns="http://www.w3.org/2000/svg">
<g clip-path="url(#clip0_2454_12985)">
<path fill-rule="evenodd" clip-rule="evenodd" d="M18.6667 2.66675C19.403 2.66675 20 3.2637 20 4.00008V9.33341H25.3333C26.0697 9.33341 26.6667 9.93037 26.6667 10.6667C26.6667 11.4031 26.0697 12.0001 25.3333 12.0001H20C19.2928 12.0001 18.6145 11.7191 18.1144 11.219C17.6143 10.7189 17.3333 10.0407 17.3333 9.33341V4.00008C17.3333 3.2637 17.9303 2.66675 18.6667 2.66675Z" fill="white"/>
<path fill-rule="evenodd" clip-rule="evenodd" d="M9.33334 5.33341C8.97971 5.33341 8.64058 5.47389 8.39053 5.72394C8.14048 5.97399 8 6.31313 8 6.66675V25.3334C8 25.687 8.14048 26.0262 8.39053 26.2762C8.64058 26.5263 8.97971 26.6667 9.33334 26.6667H22.6667C23.0203 26.6667 23.3594 26.5263 23.6095 26.2762C23.8595 26.0262 24 25.687 24 25.3334V11.219L18.1144 5.33341H9.33334ZM6.50491 3.83832C7.25505 3.08818 8.27247 2.66675 9.33334 2.66675H18.6667C19.0203 2.66675 19.3594 2.80722 19.6095 3.05727L26.2761 9.72394C26.5262 9.97399 26.6667 10.3131 26.6667 10.6667V25.3334C26.6667 26.3943 26.2452 27.4117 25.4951 28.1618C24.745 28.912 23.7275 29.3334 22.6667 29.3334H9.33334C8.27247 29.3334 7.25505 28.912 6.50491 28.1618C5.75476 27.4117 5.33334 26.3943 5.33334 25.3334V6.66675C5.33334 5.60588 5.75476 4.58847 6.50491 3.83832Z" fill="white"/>
<path fill-rule="evenodd" clip-rule="evenodd" d="M16 13.3334C16.7364 13.3334 17.3333 13.9304 17.3333 14.6667V22.6667C17.3333 23.4031 16.7364 24.0001 16 24.0001C15.2636 24.0001 14.6667 23.4031 14.6667 22.6667V14.6667C14.6667 13.9304 15.2636 13.3334 16 13.3334Z" fill="white"/>
<path fill-rule="evenodd" clip-rule="evenodd" d="M11.7239 18.3906C12.2446 17.8699 13.0888 17.8699 13.6095 18.3906L16 20.7811L18.3905 18.3906C18.9112 17.8699 19.7554 17.8699 20.2761 18.3906C20.7968 18.9113 20.7968 19.7555 20.2761 20.2762L16.9428 23.6096C16.4221 24.1303 15.5779 24.1303 15.0572 23.6096L11.7239 20.2762C11.2032 19.7555 11.2032 18.9113 11.7239 18.3906Z" fill="white"/>
</g>
<defs>
<clipPath id="clip0_2454_12985">
<rect width="32" height="32" fill="white"/>
</clipPath>
</defs>
</svg>
