<svg width="32" height="32" viewBox="0 0 32 32" fill="none" xmlns="http://www.w3.org/2000/svg">
<g clip-path="url(#clip0_2454_12997)">
<path fill-rule="evenodd" clip-rule="evenodd" d="M25.2667 5.33244C24.8951 5.33244 24.5388 5.48002 24.2761 5.74273L24.26 5.75857L20.26 9.62523C19.9028 9.97059 19.3831 10.0886 18.9117 9.9315L9.69345 6.85875L8.20997 8.34223L15.2988 12.1593C15.6699 12.3591 15.9247 12.7226 15.9859 13.1396C16.0471 13.5566 15.9075 13.978 15.6095 14.2761L11.6095 18.2761C11.3594 18.5261 11.0203 18.6666 10.6667 18.6666H7.21895L6.46831 19.4172L10.4216 20.735C10.8198 20.8677 11.1322 21.1801 11.2649 21.5783L12.5827 25.5316L13.3333 24.781V21.3333C13.3333 20.9796 13.4738 20.6405 13.7239 20.3904L17.7239 16.3904C18.0224 16.0919 18.4447 15.9524 18.8624 16.0144C19.28 16.0763 19.6437 16.3325 19.8426 16.7049L23.6531 23.8359L25.144 22.3151L22.0684 13.0882C21.9113 12.6168 22.0293 12.0972 22.3747 11.7399L26.2413 7.73989L26.2572 7.72377C26.5199 7.46107 26.6675 7.10477 26.6675 6.73325C26.6675 6.36173 26.5199 6.00543 26.2572 5.74273C25.9945 5.48002 25.6382 5.33244 25.2667 5.33244ZM22.3993 3.84831C23.1613 3.09101 24.1921 2.66577 25.2667 2.66577C26.3454 2.66577 27.38 3.09431 28.1428 3.85711C28.9056 4.61991 29.3341 5.65449 29.3341 6.73325C29.3341 7.8079 28.9089 8.8387 28.1515 9.60065L24.8539 13.012L27.9316 22.2449C28.0898 22.7196 27.969 23.2428 27.6188 23.6L24.2854 27C23.9882 27.3032 23.5644 27.4467 23.1441 27.3864C22.7239 27.3262 22.3574 27.0694 22.1574 26.695L18.3381 19.5475L16 21.8855V25.3333C16 25.6869 15.8595 26.026 15.6095 26.2761L12.9428 28.9427C12.6161 29.2695 12.1434 29.4038 11.6937 29.2976C11.2439 29.1914 10.8812 28.8599 10.7351 28.4216L8.94591 23.054L3.57836 21.2648C3.13997 21.1187 2.80851 20.756 2.70234 20.3063C2.59617 19.8565 2.73044 19.3839 3.05719 19.0571L5.72386 16.3904C5.97391 16.1404 6.31305 15.9999 6.66667 15.9999H10.1144L12.4567 13.6576L5.36787 9.84055C4.99677 9.64072 4.742 9.27721 4.6808 8.8602C4.6196 8.44319 4.75916 8.0218 5.05719 7.72377L8.39052 4.39044C8.74763 4.03333 9.27586 3.90864 9.75497 4.06834L18.9879 7.146L22.3993 3.84831Z" fill="white"/>
</g>
<defs>
<clipPath id="clip0_2454_12997">
<rect width="32" height="32" fill="white"/>
</clipPath>
</defs>
</svg>
