<svg width="48" height="48" viewBox="0 0 48 48" fill="none" xmlns="http://www.w3.org/2000/svg">
<path fill-rule="evenodd" clip-rule="evenodd" d="M7 8C7 5.79086 8.79086 4 11 4H32C32.5304 4 33.0391 4.21071 33.4142 4.58579L40.4142 11.5858C40.7893 11.9609 41 12.4696 41 13V40C41 42.2091 39.2091 44 37 44H11C8.79086 44 7 42.2091 7 40V8ZM31.1716 8L11 8V40H37V13.8284L31.1716 8ZM15 21C15 19.8954 15.8954 19 17 19H31C32.1046 19 33 19.8954 33 21C33 22.1046 32.1046 23 31 23H17C15.8954 23 15 22.1046 15 21ZM15 29C15 27.8954 15.8954 27 17 27H25C26.1046 27 27 27.8954 27 29C27 30.1046 26.1046 31 25 31H17C15.8954 31 15 30.1046 15 29Z" fill="#4E5969"/>
</svg>
