<svg width="48" height="48" viewBox="0 0 48 48" fill="none" xmlns="http://www.w3.org/2000/svg">
<path fill-rule="evenodd" clip-rule="evenodd" d="M4 10C4 8.23698 5.47873 7 7.05882 7H20.5933C21.5636 7 22.5139 7.45547 23.1029 8.28437L25.0324 11H39.8824C42.0472 11 44 12.6847 44 15V36C44 37.0105 43.6083 38.1239 43.0748 38.9757C42.6009 39.7324 41.5502 41 39.8824 41H8.11765C5.95278 41 4 39.3153 4 37V10ZM8 15V36.9658C8.01864 36.9804 8.05646 37 8.11765 37H39.5815C39.6111 36.9627 39.6462 36.9142 39.6847 36.8527C39.7839 36.6943 39.8706 36.5057 39.9297 36.3221C39.9585 36.2326 39.9773 36.155 39.9883 36.0935C39.9992 36.0328 40 36.0019 40 36.0001L40 15.0342C39.9814 15.0196 39.9435 15 39.8824 15H8Z" fill="#4E5969"/>
</svg>
