<svg viewBox="0 0 48 48" fill="none" xmlns="http://www.w3.org/2000/svg">
<path fill-rule="evenodd" clip-rule="evenodd" d="M8 11V36.9667C8.01799 36.9806 8.05527 37 8.1168 37H33.8832V41H8.1168C5.95041 41 4 39.3157 4 36.999V9.999C4 8.23323 5.48309 7 7.0584 7H20.5944C21.5669 7 22.5139 7.45625 23.1029 8.2852L23.1038 8.28651L25.0321 10.999H33.8832C36.0516 10.999 38 12.6882 38 15V21H34V15.0333C33.9817 15.0187 33.9443 14.999 33.8832 14.999H22.9679L20.1251 11H8Z" fill="#4E5969"/>
<path fill-rule="evenodd" clip-rule="evenodd" d="M11.5102 22.1948C11.7831 21.1942 12.692 20.5 13.7291 20.5H43.1072C44.6238 20.5 45.7252 21.9421 45.3262 23.4052L40.9295 39.5262C40.6922 40.3964 39.9019 41 39 41H9C8.37666 41 7.78895 40.7094 7.41059 40.214C7.03222 39.7186 6.90646 39.0751 7.07047 38.4738L11.5102 22.1948ZM15.0276 24.5L11.6185 37H37.4724L40.8815 24.5H15.0276Z" fill="#4E5969"/>
</svg>
