<svg width="48" height="48" viewBox="0 0 48 48" fill="none" xmlns="http://www.w3.org/2000/svg">
<path fill-rule="evenodd" clip-rule="evenodd" d="M37 5C38.1046 5 39 5.89543 39 7V11H43C44.1046 11 45 11.8954 45 13C45 14.1046 44.1046 15 43 15H39V19C39 20.1046 38.1046 21 37 21C35.8955 21 35 20.1046 35 19V15H31C29.8955 15 29 14.1046 29 13C29 11.8954 29.8955 11 31 11H35V7C35 5.89543 35.8955 5 37 5ZM20.5 6C21.3042 6 22.0302 6.48166 22.3428 7.2226L35.8428 39.2226C36.2721 40.2403 35.7951 41.4134 34.7774 41.8427C33.7597 42.2721 32.5866 41.7951 32.1573 40.7774L27.0118 28.5806H13.9883L8.84276 40.7774C8.41341 41.7951 7.24034 42.2721 6.22263 41.8427C5.20492 41.4134 4.72795 40.2403 5.1573 39.2226L18.6573 7.2226C18.9699 6.48166 19.6959 6 20.5 6ZM15.6758 24.5806H25.3243L20.5 13.1453L15.6758 24.5806Z" fill="#4E5969"/>
</svg>
