<svg width="48" height="48" viewBox="0 0 48 48" fill="none" xmlns="http://www.w3.org/2000/svg">
<path fill-rule="evenodd" clip-rule="evenodd" d="M22.986 5.27613C23.6119 4.90796 24.3881 4.90796 25.014 5.27613L42.014 15.2761C42.6249 15.6355 43 16.2913 43 17V41C43 42.1046 42.1046 43 41 43H7C5.89543 43 5 42.1046 5 41V17C5 16.2913 5.37508 15.6355 5.98596 15.2761L22.986 5.27613ZM22 39H26V30H22V39ZM30 39V28C30 26.8954 29.1046 26 28 26H20C18.8954 26 18 26.8954 18 28V39H9V18.1439L24 9.32036L39 18.1439V39H30Z" fill="#4E5969"/>
</svg>
