<svg width="48" height="48" viewBox="0 0 48 48" fill="none" xmlns="http://www.w3.org/2000/svg">
<path fill-rule="evenodd" clip-rule="evenodd" d="M5 9C5 6.79086 6.79086 5 9 5H39C41.2091 5 43 6.79086 43 9V39C43 41.2091 41.2091 43 39 43H9C6.79086 43 5 41.2091 5 39V9ZM39 9H9V39H39V9ZM13 13H19V19H13V13ZM35 19.1716V35H12.9107L20.5 25.2424L24.1878 29.9838L35 19.1716ZM28.8284 31H31V28.8284L28.8284 31Z" fill="#4E5969"/>
<path d="M33 33V24L24 33H33Z" fill="#4E5969"/>
<path d="M23.5 33L20.5 29L17.5 33H23.5Z" fill="#4E5969"/>
<path d="M15 15H17V17H15V15Z" fill="#4E5969"/>
</svg>
