<svg width="48" height="48" viewBox="0 0 48 48" fill="none" xmlns="http://www.w3.org/2000/svg">
<path fill-rule="evenodd" clip-rule="evenodd" d="M23 4.26795C23.6188 3.91068 24.3812 3.91068 25 4.26795L40.5884 13.2679C41.2072 13.6252 41.5884 14.2855 41.5884 15V33C41.5884 33.7145 41.2072 34.3748 40.5884 34.732L25 43.7321C24.3812 44.0893 23.6188 44.0893 23 43.7321L7.4115 34.732C6.7927 34.3748 6.4115 33.7145 6.4115 33V15C6.4115 14.2855 6.7927 13.6252 7.4115 13.2679L23 4.26795ZM10.4115 16.1547V31.8453L24 39.6906L37.5884 31.8453V16.1547L24 8.3094L10.4115 16.1547Z" fill="#4E5969"/>
<path fill-rule="evenodd" clip-rule="evenodd" d="M26 13.5C27.1045 13.5 28 14.3954 28 15.5H24C24 14.3954 24.8954 13.5 26 13.5ZM19 30.5L18.5809 32.4556C17.5008 32.2242 16.8129 31.161 17.0444 30.0809C17.2752 29.0037 18.3334 28.3166 19.4105 28.5426L19.4134 28.5432M19.4105 28.5426L19.4392 28.548C19.4696 28.5536 19.5221 28.5627 19.5935 28.5733C19.737 28.5945 19.9517 28.6208 20.2125 28.6363C20.7499 28.6683 21.405 28.6497 22.0149 28.4972C22.618 28.3464 23.0728 28.0929 23.3812 27.7295C23.6719 27.3869 24 26.7508 24 25.5V15.5H28V25.5C28 27.4992 27.453 29.1131 26.4312 30.3174C25.4271 31.5008 24.132 32.0911 22.985 32.3778C21.845 32.6628 20.75 32.6754 19.9749 32.6293C19.5794 32.6057 19.2473 32.5656 19.008 32.5302C18.8879 32.5125 18.79 32.4957 18.7179 32.4825C18.6818 32.4759 18.6521 32.4701 18.6291 32.4655L18.5998 32.4596L18.589 32.4573L18.5846 32.4564L18.5827 32.456C18.5827 32.456 18.5809 32.4556 19 30.5" fill="#4E5969"/>
</svg>
