<?xml version="1.0" encoding="UTF-8"?>
<svg width="24" height="24" viewBox="0 0 24 24" fill="none" xmlns="http://www.w3.org/2000/svg">
  <path d="m10.204 14.35.007.01-.999 2.413a5.171 5.171 0 0 1-2.075-2.597l2.578-.437.004.007c.148.2.318.38.485.604zm-.833-2.129a4.01 4.01 0 0 0-.8-.229l-.448-2.596c.922-.38 1.94-.38 2.863 0l-.449 2.596c-.308.067-.553.134-.8.229h-.366zm.342-2.718a.71.71 0 0 0-.71.71v.637c-.241-.016-.49-.016-.731 0v-.637a.71.71 0 0 0-.71-.71.71.71 0 0 0-.71.71v.637c-.2.033-.4.083-.59.149l-.318-.55a.71.71 0 0 0-.973-.258.71.71 0 0 0-.258.973l.318.55c-.157.116-.307.249-.449.39l-.55-.318a.71.71 0 0 0-.973.258.71.71 0 0 0 .258.973l.55.318c-.116.157-.249.307-.39.449l-.55-.318a.71.71 0 0 0-.973.258.71.71 0 0 0 .258.973l.55.318c-.066.19-.116.39-.149.59h-.637a.71.71 0 0 0-.71.71c0 .39.32.71.71.71h.637c.033.2.083.4.149.59l-.55.318a.71.71 0 0 0-.258.973.71.71 0 0 0 .973.258l.55-.318c.116.157.249.307.39.449l-.318.55a.71.71 0 0 0 .258.973.71.71 0 0 0 .973-.258l.318-.55c.157.116.307.249.449.39l-.318.55a.71.71 0 0 0 .258.973.71.71 0 0 0 .973-.258l.318-.55c.19.066.39.116.59.149v.637c0 .39.32.71.71.71s.71-.32.71-.71v-.637c.2-.033.4-.083.59-.149l.318.55a.71.71 0 0 0 .973.258.71.71 0 0 0 .258-.973l-.318-.55c.142-.141.274-.274.39-.449l.55.318a.71.71 0 0 0 .973-.258.71.71 0 0 0-.258-.973l-.55-.318c.066-.19.116-.39.149-.59h.637a.71.71 0 0 0 .71-.71.71.71 0 0 0-.71-.71h-.637a4.717 4.717 0 0 0-.149-.59l.55-.318a.71.71 0 0 0 .258-.973.71.71 0 0 0-.973-.258l-.55.318a4.717 4.717 0 0 0-.39-.449l.318-.55a.71.71 0 0 0-.258-.973.71.71 0 0 0-.973.258l-.318.55a4.717 4.717 0 0 0-.449-.39l.318-.55a.71.71 0 0 0-.258-.973.71.71 0 0 0-.973.258l-.318.55a4.717 4.717 0 0 0-.59-.149v-.637a.71.71 0 0 0-.71-.71.71.71 0 0 0-.71.71v.637c-.2.033-.4.083-.59.149l-.318-.55a.71.71 0 0 0-.973-.258.71.71 0 0 0-.258.973l.318.55c-.157.116-.307.249-.449.39l-.55-.318a.71.71 0 0 0-.973.258.71.71 0 0 0 .258.973l.55.318c-.066.19-.116.39-.149.59h-.637a.71.71 0 0 0-.71.71c0 .39.32.71.71.71h.637c.016.241.016.49 0 .731h-.637a.71.71 0 0 0-.71.71z" fill="#326CE5"/>
  <path d="M12.73 13.93c.066.047.124.107.166.177l.014-.007 1.357 2.312a5.193 5.193 0 0 1-3.267 1.166 5.204 5.204 0 0 1-3.267-1.166l1.357-2.312.014.007c.042-.07.1-.13.166-.177.309.205.65.346 1.004.404v-.007h.463v.007c.354-.058.695-.199 1.004-.404zm-.877-.508a1.47 1.47 0 0 1-.853.27 1.47 1.47 0 0 1-.853-.27 1.485 1.485 0 0 1-.54-.688L12 6.592l2.393 6.142c-.136.281-.339.507-.54.688z" fill="#326CE5"/>
</svg> 