<svg width="48" height="48" viewBox="0 0 48 48" fill="none" xmlns="http://www.w3.org/2000/svg">
<path fill-rule="evenodd" clip-rule="evenodd" d="M24 40C32.8366 40 40 32.8366 40 24C40 15.1634 32.8366 8 24 8C15.1634 8 8 15.1634 8 24C8 32.8366 15.1634 40 24 40ZM24 44C35.0457 44 44 35.0457 44 24C44 12.9543 35.0457 4 24 4C12.9543 4 4 12.9543 4 24C4 35.0457 12.9543 44 24 44Z" fill="#4E5969"/>
<path fill-rule="evenodd" clip-rule="evenodd" d="M24.9269 7.56435C24.6553 7.78068 24.3892 8.0036 24.1288 8.23288C19.7548 12.0842 17 17.7191 17 24C17 30.7685 20.1999 36.7886 25.1777 40.6323L22.733 43.7983C16.8166 39.2298 13 32.0602 13 24C13 16.5221 16.2856 9.80923 21.4854 5.23079C21.7951 4.95811 22.1116 4.69297 22.4346 4.43565L24.9269 7.56435Z" fill="#4E5969"/>
<path fill-rule="evenodd" clip-rule="evenodd" d="M23.0285 7.56435C23.3 7.78068 23.5661 8.0036 23.8265 8.23288C28.2005 12.0842 30.9553 17.7191 30.9553 24C30.9553 30.7685 27.7554 36.7886 22.7777 40.6323L25.2223 43.7983C31.1387 39.2298 34.9553 32.0602 34.9553 24C34.9553 16.5221 31.6697 9.80923 26.4699 5.23079C26.1602 4.95811 25.8437 4.69297 25.5207 4.43565L23.0285 7.56435Z" fill="#4E5969"/>
<path fill-rule="evenodd" clip-rule="evenodd" d="M42 26H5V22H42V26Z" fill="#4E5969"/>
</svg>
