<svg width="48" height="48" viewBox="0 0 48 48" fill="none" xmlns="http://www.w3.org/2000/svg">
<path fill-rule="evenodd" clip-rule="evenodd" d="M31.5143 24.2285C31.8254 23.4843 32.553 22.9999 33.3596 22.9999H34.6396C35.4461 22.9999 36.1737 23.4843 36.4848 24.2285L40.6654 34.2285C40.6699 34.2393 40.6744 34.2502 40.6787 34.2612L43.8586 42.2612C44.2666 43.2876 43.7652 44.4505 42.7387 44.8585C41.7123 45.2665 40.5494 44.7651 40.1414 43.7386L38.2579 38.9999H29.7415L27.8586 43.7384C27.4507 44.7649 26.2879 45.2664 25.2614 44.8585C24.235 44.4506 23.7335 43.2878 24.1414 42.2613L27.3202 34.2613C27.3246 34.2503 27.3291 34.2394 27.3336 34.2285L31.5143 24.2285ZM31.3466 34.9999H36.6524L33.9995 28.6542L31.3466 34.9999Z" fill="#4E5969"/>
<path fill-rule="evenodd" clip-rule="evenodd" d="M16.6078 3.03874C17.6909 2.82211 18.7445 3.52455 18.9612 4.60767L19.9612 9.60767C20.1778 10.6908 19.4754 11.7444 18.3922 11.9611C17.3091 12.1777 16.2555 11.4752 16.0388 10.3921L15.0388 5.39213C14.8222 4.30901 15.5246 3.25536 16.6078 3.03874Z" fill="#4E5969"/>
<path fill-rule="evenodd" clip-rule="evenodd" d="M3 10.9999C3 9.89533 3.89543 8.9999 5 8.9999L31 8.9999C32.1046 8.9999 33 9.89533 33 10.9999C33 12.1045 32.1046 12.9999 31 12.9999L5 12.9999C3.89543 12.9999 3 12.1045 3 10.9999Z" fill="#4E5969"/>
<path fill-rule="evenodd" clip-rule="evenodd" d="M10.5308 9.05572C11.6045 8.79657 12.685 9.45691 12.9442 10.5307L11 10.9999C12.9442 10.5307 12.9442 10.5307 12.9442 10.5307L12.9439 10.5295L12.9464 10.5395L12.9595 10.5915C12.972 10.6402 12.9919 10.7162 13.0195 10.8169C13.0746 11.0183 13.1601 11.3177 13.2776 11.6933C13.5133 12.4462 13.875 13.4968 14.3754 14.6741C15.3934 17.0695 16.9107 19.8103 18.9658 21.7024C21.1577 23.7206 24.0978 25.5881 26.5584 26.975C27.7759 27.6612 28.8504 28.2156 29.6187 28.5976C30.0024 28.7884 30.3087 28.9356 30.517 29.0343C30.6212 29.0835 30.7007 29.1206 30.7532 29.1449L30.8111 29.1716L30.8242 29.1776L30.8263 29.1786C31.8322 29.6349 32.2777 30.8203 31.8213 31.8262C31.365 32.8321 30.1796 33.2776 29.1737 32.8212L30 30.9999C29.1737 32.8212 29.1737 32.8212 29.1737 32.8212L29.1647 32.8171L29.1446 32.808L29.0723 32.7746C29.0101 32.7458 28.9204 32.704 28.8056 32.6496C28.5763 32.5411 28.2467 32.3826 27.8379 32.1794C27.0211 31.7733 25.8838 31.1864 24.5943 30.4596C22.041 29.0204 18.7867 26.9748 16.2565 24.6451C13.5894 22.1895 11.8011 18.8434 10.6941 16.2387C10.1319 14.9161 9.72633 13.7383 9.46021 12.888C9.3269 12.462 9.22792 12.116 9.16129 11.8725C9.12796 11.7506 9.10267 11.6543 9.08518 11.5862C9.07644 11.5521 9.06964 11.5251 9.06476 11.5055L9.05887 11.4816L9.05699 11.474L9.05605 11.4701C9.05605 11.4701 9.05583 11.4691 11 10.9999L9.05605 11.4701C8.7969 10.3963 9.45702 9.31488 10.5308 9.05572Z" fill="#4E5969"/>
<path fill-rule="evenodd" clip-rule="evenodd" d="M25.4692 9.05572C24.3955 8.79657 23.315 9.45691 23.0558 10.5307L25 10.9999C23.0558 10.5307 23.0558 10.5307 23.0558 10.5307L23.0561 10.5295L23.0536 10.5395L23.0404 10.5915C23.028 10.6402 23.0081 10.7162 22.9805 10.8169C22.9254 11.0183 22.8399 11.3177 22.7224 11.6933C22.4867 12.4462 22.125 13.4968 21.6246 14.6741C20.6066 17.0695 19.0893 19.8103 17.0342 21.7024C14.8422 23.7206 11.9022 25.5881 9.44157 26.975C8.22414 27.6612 7.14963 28.2156 6.38134 28.5976C5.99759 28.7884 5.69127 28.9356 5.48295 29.0343C5.37882 29.0835 5.29925 29.1206 5.24683 29.1449L5.18891 29.1716L5.17584 29.1776L5.1737 29.1786C4.16804 29.635 3.72237 30.8204 4.17867 31.8262C4.63503 32.8321 5.82041 33.2776 6.8263 32.8212L6 30.9999C6.8263 32.8212 6.8263 32.8212 6.8263 32.8212L6.8353 32.8171L6.85536 32.808L6.92767 32.7746C6.98986 32.7458 7.07963 32.704 7.19435 32.6496C7.42375 32.5411 7.75329 32.3826 8.16207 32.1794C8.97886 31.7733 10.1162 31.1864 11.4057 30.4596C13.959 29.0204 17.2133 26.9748 19.7435 24.6451C22.4106 22.1895 24.1989 18.8434 25.3059 16.2387C25.8681 14.9161 26.2737 13.7383 26.5398 12.888C26.6731 12.462 26.7721 12.116 26.8387 11.8725C26.872 11.7506 26.8973 11.6543 26.9148 11.5862C26.9236 11.5521 26.9304 11.5251 26.9352 11.5055L26.9411 11.4816L26.943 11.474L26.9439 11.4701C26.9439 11.4701 26.9442 11.4691 25 10.9999L26.9439 11.4701C27.2031 10.3963 26.543 9.31488 25.4692 9.05572Z" fill="#4E5969"/>
</svg>
