<svg width="48" height="48" viewBox="0 0 48 48" fill="none" xmlns="http://www.w3.org/2000/svg">
<path fill-rule="evenodd" clip-rule="evenodd" d="M4 12C4 10.8954 4.89543 10 6 10H8C9.10457 10 10 10.8954 10 12C10 13.1046 9.10457 14 8 14H6C4.89543 14 4 13.1046 4 12ZM14 12C14 10.8954 14.8954 10 16 10H40C41.1046 10 42 10.8954 42 12C42 13.1046 41.1046 14 40 14H16C14.8954 14 14 13.1046 14 12ZM4 24C4 22.8954 4.89543 22 6 22H8C9.10457 22 10 22.8954 10 24C10 25.1046 9.10457 26 8 26H6C4.89543 26 4 25.1046 4 24ZM14 24C14 22.8954 14.8954 22 16 22H40C41.1046 22 42 22.8954 42 24C42 25.1046 41.1046 26 40 26H16C14.8954 26 14 25.1046 14 24ZM4 36C4 34.8954 4.89543 34 6 34H8C9.10457 34 10 34.8954 10 36C10 37.1046 9.10457 38 8 38H6C4.89543 38 4 37.1046 4 36ZM14 36C14 34.8954 14.8954 34 16 34H40C41.1046 34 42 34.8954 42 36C42 37.1046 41.1046 38 40 38H16C14.8954 38 14 37.1046 14 36Z" fill="#4E5969"/>
</svg>
