<svg width="48" height="48" viewBox="0 0 48 48" fill="none" xmlns="http://www.w3.org/2000/svg">
<path fill-rule="evenodd" clip-rule="evenodd" d="M14 14.5C14 8.97715 18.4772 4.5 24 4.5C29.5228 4.5 34 8.97715 34 14.5V15.5H39C41.2091 15.5 43 17.2909 43 19.5V39.5C43 41.7091 41.2091 43.5 39 43.5H9C6.79086 43.5 5 41.7091 5 39.5V19.5C5 17.2909 6.79086 15.5 9 15.5H14V14.5ZM18 15.5H30V14.5C30 11.1863 27.3137 8.5 24 8.5C20.6863 8.5 18 11.1863 18 14.5V15.5ZM9 19.5V39.5H39V19.5H9ZM24 27.5C22.8954 27.5 22 28.3954 22 29.5C22 30.6046 22.8954 31.5 24 31.5C25.1046 31.5 26 30.6046 26 29.5C26 28.3954 25.1046 27.5 24 27.5ZM18 29.5C18 26.1863 20.6863 23.5 24 23.5C27.3137 23.5 30 26.1863 30 29.5C30 32.8137 27.3137 35.5 24 35.5C20.6863 35.5 18 32.8137 18 29.5Z" fill="#4E5969"/>
</svg>
