<svg width="48" height="48" viewBox="0 0 48 48" fill="none" xmlns="http://www.w3.org/2000/svg">
<g clip-path="url(#clip0_2352_11428)">
<path fill-rule="evenodd" clip-rule="evenodd" d="M7.75736 7.75736C8.88258 6.63214 10.4087 6 12 6H26C27.5913 6 29.1174 6.63214 30.2426 7.75736C31.3679 8.88258 32 10.4087 32 12V16C32 17.1046 31.1046 18 30 18C28.8954 18 28 17.1046 28 16V12C28 11.4696 27.7893 10.9609 27.4142 10.5858C27.0391 10.2107 26.5304 10 26 10H12C11.4696 10 10.9609 10.2107 10.5858 10.5858C10.2107 10.9609 10 11.4696 10 12V36C10 36.5304 10.2107 37.0391 10.5858 37.4142C10.9609 37.7893 11.4696 38 12 38H26C26.5304 38 27.0391 37.7893 27.4142 37.4142C27.7893 37.0391 28 36.5304 28 36V32C28 30.8954 28.8954 30 30 30C31.1046 30 32 30.8954 32 32V36C32 37.5913 31.3679 39.1174 30.2426 40.2426C29.1174 41.3679 27.5913 42 26 42H12C10.4087 42 8.88258 41.3679 7.75736 40.2426C6.63214 39.1174 6 37.5913 6 36V12C6 10.4087 6.63214 8.88258 7.75736 7.75736Z" fill="#4E5969"/>
<path fill-rule="evenodd" clip-rule="evenodd" d="M23.4142 16.5858C24.1953 17.3668 24.1953 18.6332 23.4142 19.4142L20.8284 22H42C43.1046 22 44 22.8954 44 24C44 25.1046 43.1046 26 42 26H16C15.1911 26 14.4618 25.5127 14.1522 24.7654C13.8427 24.018 14.0138 23.1578 14.5858 22.5858L20.5858 16.5858C21.3668 15.8047 22.6332 15.8047 23.4142 16.5858Z" fill="#4E5969"/>
<path fill-rule="evenodd" clip-rule="evenodd" d="M14.5858 22.5858C15.3668 21.8047 16.6332 21.8047 17.4142 22.5858L23.4142 28.5858C24.1953 29.3668 24.1953 30.6332 23.4142 31.4142C22.6332 32.1953 21.3668 32.1953 20.5858 31.4142L14.5858 25.4142C13.8047 24.6332 13.8047 23.3668 14.5858 22.5858Z" fill="#4E5969"/>
</g>
<defs>
<clipPath id="clip0_2352_11428">
<rect width="48" height="48" fill="white"/>
</clipPath>
</defs>
</svg>
