<svg width="48" height="48" viewBox="0 0 48 48" fill="none" xmlns="http://www.w3.org/2000/svg">
<path fill-rule="evenodd" clip-rule="evenodd" d="M4 11C4 9.89543 4.89543 9 6 9H42C43.1046 9 44 9.89543 44 11C44 12.1046 43.1046 13 42 13H6C4.89543 13 4 12.1046 4 11Z" fill="#4E5969"/>
<path fill-rule="evenodd" clip-rule="evenodd" d="M20 24C20 22.8954 20.8954 22 22 22L42 22C43.1046 22 44 22.8954 44 24C44 25.1046 43.1046 26 42 26L22 26C20.8954 26 20 25.1046 20 24Z" fill="#4E5969"/>
<path fill-rule="evenodd" clip-rule="evenodd" d="M4 37C4 35.8954 4.89543 35 6 35L42 35C43.1046 35 44 35.8954 44 37C44 38.1046 43.1046 39 42 39L6 39C4.89543 39 4 38.1046 4 37Z" fill="#4E5969"/>
<path fill-rule="evenodd" clip-rule="evenodd" d="M7.54326 18.2044C6.8779 17.7739 6 18.2515 6 19.044V28.9561C6 29.7486 6.87789 30.2262 7.54326 29.7957L15.2025 24.8396C15.8115 24.4455 15.8115 23.5545 15.2025 23.1605L7.54326 18.2044Z" fill="#4E5969"/>
</svg>
