<svg width="48" height="48" viewBox="0 0 48 48" fill="none" xmlns="http://www.w3.org/2000/svg">
<path fill-rule="evenodd" clip-rule="evenodd" d="M5 24C5 13.5066 13.5066 5 24 5C34.4934 5 43 13.5066 43 24V24.6296C43 34.7753 34.7753 43 24.6296 43H7C5.89543 43 5 42.1046 5 41V24ZM24 9C15.7157 9 9 15.7157 9 24V39H24.6296C32.5662 39 39 32.5662 39 24.6296V24C39 15.7157 32.2843 9 24 9ZM13 20C13 18.8954 13.8954 18 15 18H33C34.1046 18 35 18.8954 35 20C35 21.1046 34.1046 22 33 22H15C13.8954 22 13 21.1046 13 20ZM13 29C13 27.8954 13.8954 27 15 27H24C25.1046 27 26 27.8954 26 29C26 30.1046 25.1046 31 24 31H15C13.8954 31 13 30.1046 13 29Z" fill="#4E5969"/>
</svg>
