<?xml version="1.0" encoding="UTF-8"?>
<svg width="24" height="24" viewBox="0 0 24 24" fill="none" xmlns="http://www.w3.org/2000/svg">
  <path d="M17.193 9.555c-1.264-5.58-4.252-7.414-4.573-8.115-.28-.394-.53-.954-.735-1.44-.036.495-.055.685-.523 1.184-.723.566-4.438 3.682-4.74 10.02-.282 5.912 4.27 9.435 4.888 9.884l.07.05A73.49 73.49 0 0111.91 24h.481c.114-1.032.284-2.056.51-3.07.417-.296 5.409-3.7 5.492-10.595-.013-.022-.04-.07-.2-.78z" fill="#47A248"/>
  <path d="M12.212 24h-.424c-.11-1.186-.31-2.368-.6-3.53-.142-.197-.234-.396-.275-.595-.093-.398-.056-.797.111-1.176.111-.25.179-.524.2-.804.077-.793-.166-1.586-.68-2.11-.263-.244-.62-.403-.992-.403-.372 0-.729.159-.992.403-.514.524-.757 1.317-.68 2.11.021.28.089.554.2.804.167.379.204.778.111 1.176-.041.199-.133.398-.275.595-.29 1.162-.49 2.344-.6 3.53z" fill="#47A248"/>
</svg> 