<?xml version="1.0" encoding="UTF-8"?>
<svg width="24" height="24" viewBox="0 0 24 24" fill="none" xmlns="http://www.w3.org/2000/svg">
  <path d="M16.405 5.501c-.115 0-.193.014-.274.033v.013h.014c.054.104.146.18.214.104.042-.104 0-.193-.054-.26-.014-.014-.014-.014-.033-.021h-.014c-.07.014-.104.014-.104.014-.014-.014-.033-.033-.047-.061-.014-.028-.021-.056-.033-.084-.021-.042-.063-.063-.084-.104-.042-.063-.07-.146-.104-.214-.021-.042-.063-.063-.084-.104-.021-.042-.021-.104-.042-.146-.01-.01-.01-.01-.01-.021v-.01c-.01-.01-.01-.01-.01-.021-.07-.07-.146-.133-.214-.214-.042-.042-.084-.104-.146-.133-.021-.014-.063-.014-.084-.033l-.01.021c0 .01.01.01.01.021.063.063.146.104.214.167.042.042.084.104.146.133.021.021.021.063.042.084.063.063.146.104.214.167.042.042.084.104.146.133.021.021.021.063.042.084.063.063.146.104.214.167.042.042.084.104.146.133.021.021.021.063.042.084.063.063.146.104.214.167.042.042.084.104.146.133.021.021.021.063.042.084.063.063.146.104.214.167.042.042.084.104.146.133.021.021.021.063.042.084.063.063.146.104.214.167.042.042.084.104.146.133.021.021.021.063.042.084.063.063.146.104.214.167.042.042.084.104.146.133.021.021.021.063.042.084l.01-.021c-.01-.01-.01-.01-.01-.021-.07-.07-.146-.133-.214-.214-.042-.042-.084-.104-.146-.133-.021-.014-.063-.014-.084-.033l-.01.021c0 .01.01.01.01.021.063.063.146.104.214.167.042.042.084.104.146.133.021.021.021.063.042.084.063.063.146.104.214.167.042.042.084.104.146.133.021.021.021.063.042.084.063.063.146.104.214.167.042.042.084.104.146.133.021.021.021.063.042.084.063.063.146.104.214.167.042.042.084.104.146.133.021.021.021.063.042.084.063.063.146.104.214.167.042.042.084.104.146.133.021.021.021.063.042.084.063.063.146.104.214.167.042.042.084.104.146.133.021.021.021.063.042.084.063.063.146.104.214.167.042.042.084.104.146.133.021.021.021.063.042.084.063.063.146.104.214.167.042.042.084.104.146.133.021.021.021.063.042.084.063.063.146.104.214.167.042.042.084.104.146.133.021.021.021.063.042.084l.01-.021c-.01-.01-.01-.01-.01-.021-.07-.07-.146-.133-.214-.214-.042-.042-.084-.104-.146-.133-.021-.014-.063-.014-.084-.033l-.01.021c0 .01.01.01.01.021.063.063.146.104.214.167.042.042.084.104.146.133.021.021.021.063.042.084.063.063.146.104.214.167.042.042.084.104.146.133.021.021.021.063.042.084.063.063.146.104.214.167.042.042.084.104.146.133.021.021.021.063.042.084.063.063.146.104.214.167.042.042.084.104.146.133.021.021.021.063.042.084.063.063.146.104.214.167.042.042.084.104.146.133.021.021.021.063.042.084.063.063.146.104.214.167.042.042.084.104.146.133.021.021.021.063.042.084.063.063.146.104.214.167.042.042.084.104.146.133.021.021.021.063.042.084.063.063.146.104.214.167.042.042.084.104.146.133.021.021.021.063.042.084.063.063.146.104.214.167.042.042.084.104.146.133.021.021.021.063.042.084l.01-.021c-.01-.01-.01-.01-.01-.021-.07-.07-.146-.133-.214-.214-.042-.042-.084-.104-.146-.133-.021-.014-.063-.014-.084-.033l-.01.021c0 .01.01.01.01.021.063.063.146.104.214.167.042.042.084.104.146.133.021.021.021.063.042.084.063.063.146.104.214.167.042.042.084.104.146.133.021.021.021.063.042.084.063.063.146.104.214.167.042.042.084.104.146.133.021.021.021.063.042.084.063.063.146.104.214.167.042.042.084.104.146.133.021.021.021.063.042.084.063.063.146.104.214.167.042.042.084.104.146.133.021.021.021.063.042.084.063.063.146.104.214.167.042.042.084.104.146.133.021.021.021.063.042.084.063.063.146.104.214.167.042.042.084.104.146.133.021.021.021.063.042.084.063.063.146.104.214.167.042.042.084.104.146.133.021.021.021.063.042.084.063.063.146.104.214.167.042.042.084.104.146.133.021.021.021.063.042.084l.01-.021c-.01-.01-.01-.01-.01-.021-.07-.07-.146-.133-.214-.214-.042-.042-.084-.104-.146-.133-.021-.014-.063-.014-.084-.033l-.01.021z" fill="#E48E00"/>
  <path d="M9.101 11.917c-.042-.042-.063-.084-.104-.146-.21-.42-.42-.84-.629-1.26-.042-.084-.084-.167-.146-.251l-.01.021c.01.01.01.01.01.021.07.07.146.133.214.214.042.042.084.104.146.133.021.014.063.014.084.033l.01-.021c0-.01-.01-.01-.01-.021-.063-.063-.146-.104-.214-.167-.042-.042-.084-.104-.146-.133-.021-.021-.021-.063-.042-.084-.063-.063-.146-.104-.214-.167-.042-.042-.084-.104-.146-.133-.021-.021-.021-.063-.042-.084-.063-.063-.146-.104-.214-.167-.042-.042-.084-.104-.146-.133-.021-.021-.021-.063-.042-.084-.063-.063-.146-.104-.214-.167-.042-.042-.084-.104-.146-.133-.021-.021-.021-.063-.042-.084l-.01.021c.01.01.01.01.01.021.07.07.146.133.214.214.042.042.084.104.146.133.021.014.063.014.084.033l.01-.021c0-.01-.01-.01-.01-.021-.063-.063-.146-.104-.214-.167-.042-.042-.084-.104-.146-.133-.021-.021-.021-.063-.042-.084-.063-.063-.146-.104-.214-.167-.042-.042-.084-.104-.146-.133-.021-.021-.021-.063-.042-.084-.063-.063-.146-.104-.214-.167-.042-.042-.084-.104-.146-.133-.021-.021-.021-.063-.042-.084-.063-.063-.146-.104-.214-.167-.042-.042-.084-.104-.146-.133-.021-.021-.021-.063-.042-.084-.063-.063-.146-.104-.214-.167-.042-.042-.084-.104-.146-.133-.021-.021-.021-.063-.042-.084l-.01.021c.01.01.01.01.01.021.07.07.146.133.214.214.042.042.084.104.146.133.021.014.063.014.084.033l.01-.021c0-.01-.01-.01-.01-.021-.063-.063-.146-.104-.214-.167-.042-.042-.084-.104-.146-.133-.021-.021-.021-.063-.042-.084-.063-.063-.146-.104-.214-.167-.042-.042-.084-.104-.146-.133-.021-.021-.021-.063-.042-.084-.063-.063-.146-.104-.214-.167-.042-.042-.084-.104-.146-.133-.021-.021-.021-.063-.042-.084-.063-.063-.146-.104-.214-.167-.042-.042-.084-.104-.146-.133-.021-.021-.021-.063-.042-.084-.063-.063-.146-.104-.214-.167-.042-.042-.084-.104-.146-.133-.021-.021-.021-.063-.042-.084l-.01.021c.01.01.01.01.01.021.07.07.146.133.214.214.042.042.084.104.146.133.021.014.063.014.084.033l.01-.021c0-.01-.01-.01-.01-.021-.063-.063-.146-.104-.214-.167-.042-.042-.084-.104-.146-.133-.021-.021-.021-.063-.042-.084-.063-.063-.146-.104-.214-.167-.042-.042-.084-.104-.146-.133-.021-.021-.021-.063-.042-.084-.063-.063-.146-.104-.214-.167-.042-.042-.084-.104-.146-.133-.021-.021-.021-.063-.042-.084-.063-.063-.146-.104-.214-.167-.042-.042-.084-.104-.146-.133-.021-.021-.021-.063-.042-.084-.063-.063-.146-.104-.214-.167-.042-.042-.084-.104-.146-.133-.021-.021-.021-.063-.042-.084l-.01.021c.01.01.01.01.01.021.07.07.146.133.214.214.042.042.084.104.146.133.021.014.063.014.084.033l.01-.021c0-.01-.01-.01-.01-.021-.063-.063-.146-.104-.214-.167-.042-.042-.084-.104-.146-.133-.021-.021-.021-.063-.042-.084-.063-.063-.146-.104-.214-.167-.042-.042-.084-.104-.146-.133-.021-.021-.021-.063-.042-.084-.063-.063-.146-.104-.214-.167-.042-.042-.084-.104-.146-.133-.021-.021-.021-.063-.042-.084-.063-.063-.146-.104-.214-.167-.042-.042-.084-.104-.146-.133-.021-.021-.021-.063-.042-.084-.063-.063-.146-.104-.214-.167-.042-.042-.084-.104-.146-.133-.021-.021-.021-.063-.042-.084l-.01.021c.01.01.01.01.01.021.07.07.146.133.214.214.042.042.084.104.146.133.021.014.063.014.084.033l.01-.021c0-.01-.01-.01-.01-.021-.063-.063-.146-.104-.214-.167-.042-.042-.084-.104-.146-.133-.021-.021-.021-.063-.042-.084-.063-.063-.146-.104-.214-.167-.042-.042-.084-.104-.146-.133-.021-.021-.021-.063-.042-.084-.063-.063-.146-.104-.214-.167-.042-.042-.084-.104-.146-.133-.021-.021-.021-.063-.042-.084-.063-.063-.146-.104-.214-.167-.042-.042-.084-.104-.146-.133-.021-.021-.021-.063-.042-.084-.063-.063-.146-.104-.214-.167-.042-.042-.084-.104-.146-.133-.021-.021-.021-.063-.042-.084l-.01.021c.01.01.01.01.01.021.07.07.146.133.214.214.042.042.084.104.146.133.021.014.063.014.084.033l.01-.021z" fill="#00618A"/>
</svg> 