<svg width="48" height="48" viewBox="0 0 48 48" fill="none" xmlns="http://www.w3.org/2000/svg">
<path fill-rule="evenodd" clip-rule="evenodd" d="M32.75 6.83789C33.4645 6.83789 34.1248 7.21909 34.482 7.83789L39.2452 16.0879C39.7975 17.0445 39.4697 18.2676 38.5131 18.8199C37.5565 19.3722 36.3334 19.0445 35.7811 18.0879L31.5953 10.8379L16.4047 10.8379L8.8094 23.9933L16.4047 37.1488L31.5953 37.1488L38.0359 25.9933L21.5945 25.9933C20.4899 25.9933 19.5945 25.0979 19.5945 23.9933C19.5945 22.8888 20.4899 21.9933 21.5945 21.9933H41.5C42.2145 21.9933 42.8748 22.3745 43.2321 22.9933C43.5893 23.6121 43.5893 24.3745 43.2321 24.9933L34.4821 40.1488C34.1248 40.7676 33.4645 41.1488 32.75 41.1488H15.25C14.5355 41.1488 13.8752 40.7676 13.5179 40.1488L4.76795 24.9933C4.41068 24.3745 4.41068 23.6121 4.76795 22.9933L13.5179 7.83789C13.8752 7.21909 14.5355 6.83789 15.25 6.83789L32.75 6.83789Z" fill="#4E5969"/>
</svg>
