<?xml version="1.0" encoding="UTF-8"?>
<svg width="24" height="24" viewBox="0 0 24 24" fill="none" xmlns="http://www.w3.org/2000/svg">
  <path d="M11.998,24c-0.321,0-0.641-0.084-0.922-0.247l-2.936-1.737c-0.438-0.245-0.224-0.332-0.080-0.383 c0.585-0.203,0.703-0.25,1.328-0.604c0.065-0.037,0.151-0.023,0.218,0.017l2.256,1.339c0.082,0.045,0.197,0.045,0.272,0l8.795-5.076 c0.082-0.047,0.134-0.141,0.134-0.238V6.921c0-0.099-0.053-0.192-0.137-0.242l-8.791-5.072c-0.081-0.047-0.189-0.047-0.271,0 L2.46,6.68C2.376,6.729,2.322,6.825,2.322,6.921v10.15c0,0.097,0.054,0.189,0.139,0.235l2.409,1.392 c1.307,0.654,2.108-0.116,2.108-0.89V7.787c0-0.142,0.114-0.253,0.256-0.253h1.115c0.139,0,0.255,0.112,0.255,0.253v10.021 c0,1.745-0.95,2.745-2.604,2.745c-0.508,0-0.909,0-2.026-0.551L2.28,18.675c-0.57-0.329-0.922-0.945-0.922-1.604V6.921 c0-0.659,0.353-1.275,0.922-1.603l8.795-5.082c0.557-0.315,1.296-0.315,1.848,0l8.794,5.082c0.570,0.329,0.924,0.944,0.924,1.603 v10.15c0,0.659-0.354,1.273-0.924,1.604l-8.794,5.078C12.643,23.916,12.324,24,11.998,24z" fill="#68A063"/>
  <path d="M14.796 11.404c-3.853 0-4.666-1.769-4.666-3.254 0-.142.114-.253.256-.253h1.135c.127 0 .233.093.252.217.171 1.154.681 1.739 3.023 1.739 1.858 0 2.652-.421 2.652-1.407 0-.569-.225-.992-3.117-1.276-2.421-.238-3.92-.776-3.92-2.71 0-1.787 1.506-2.85 4.032-2.85 2.837 0 4.244 .985 4.422 3.101.008.072-.019.142-.071.194-.052.052-.123.082-.196.082h-1.14c-.118 0-.221-.082-.248-.195-.275-1.227-.943-1.621-2.767-1.621-2.037 0-2.274.71-2.274 1.24 0 .643.279.831 3.023 1.194 2.723.359 4.018.868 4.018 2.777-.001 1.91-1.594 3.037-4.378 3.037z" fill="#68A063"/>
</svg> 