<svg width="48" height="48" viewBox="0 0 48 48" fill="none" xmlns="http://www.w3.org/2000/svg">
<path fill-rule="evenodd" clip-rule="evenodd" d="M24 2C25.1046 2 26 2.89543 26 4L26 7.13217C33.3387 8.10995 39 14.3938 39 22V33H42C43.1046 33 44 33.8954 44 35C44 36.1046 43.1046 37 42 37H6C4.89543 37 4 36.1046 4 35C4 33.8954 4.89543 33 6 33H9V22C9 14.3938 14.6613 8.10996 22 7.13217L22 4C22 2.89543 22.8954 2 24 2ZM13 33H35V22C35 15.9249 30.0751 11 24 11C17.9249 11 13 15.9249 13 22V33ZM15 42C15 40.8954 15.8954 40 17 40H31C32.1046 40 33 40.8954 33 42C33 43.1046 32.1046 44 31 44H17C15.8954 44 15 43.1046 15 42Z" fill="#4E5969"/>
</svg>
