<svg width="48" height="48" viewBox="0 0 48 48" fill="none" xmlns="http://www.w3.org/2000/svg">
<path fill-rule="evenodd" clip-rule="evenodd" d="M4 8C4 6.34314 5.34315 5 7 5H41C42.6569 5 44 6.34314 44 8V34C44 35.6569 42.6569 37 41 37H7C5.34315 37 4 35.6569 4 34V8ZM8 9V33H40V9H8Z" fill="#4E5969"/>
<path fill-rule="evenodd" clip-rule="evenodd" d="M10 41C10 39.8954 10.8954 39 12 39H36C37.1046 39 38 39.8954 38 41C38 42.1046 37.1046 43 36 43H12C10.8954 43 10 42.1046 10 41Z" fill="#4E5969"/>
<path fill-rule="evenodd" clip-rule="evenodd" d="M23.7369 13.2167C24.5148 14.0009 24.5098 15.2672 23.7256 16.0451L18.7561 20.9751L23.6861 25.9445C24.464 26.7287 24.4589 27.995 23.6748 28.7729C22.8906 29.5508 21.6243 29.5458 20.8464 28.7616L14.5079 22.3723C14.1343 21.9958 13.9256 21.4862 13.9277 20.9558C13.9299 20.4254 14.1426 19.9175 14.5192 19.5439L20.9085 13.2054C21.6926 12.4275 22.959 12.4325 23.7369 13.2167Z" fill="#4E5969"/>
<path fill-rule="evenodd" clip-rule="evenodd" d="M14.2412 20.957C14.2456 19.8525 15.1446 18.9606 16.2491 18.965L34.0066 19.0359C35.1112 19.0403 36.003 19.9393 35.9986 21.0439C35.9942 22.1485 35.0952 23.0403 33.9907 23.0359L16.2332 22.965C15.1286 22.9606 14.2368 22.0616 14.2412 20.957Z" fill="#4E5969"/>
</svg>
