<svg width="48" height="48" viewBox="0 0 48 48" fill="none" xmlns="http://www.w3.org/2000/svg">
<path fill-rule="evenodd" clip-rule="evenodd" d="M14 11.0002C14 9.89561 14.8955 9.00018 16 9.00018H40C41.1046 9.00018 42 9.89561 42 11.0002C42 12.1048 41.1046 13.0002 40 13.0002H16C14.8955 13.0002 14 12.1048 14 11.0002ZM14 24.0002C14 22.8956 14.8955 22.0002 16 22.0002H40C41.1046 22.0002 42 22.8956 42 24.0002C42 25.1048 41.1046 26.0002 40 26.0002H16C14.8955 26.0002 14 25.1048 14 24.0002ZM14 37.0002C14 35.8956 14.8955 35.0002 16 35.0002H40C41.1046 35.0002 42 35.8956 42 37.0002C42 38.1048 41.1046 39.0002 40 39.0002H16C14.8955 39.0002 14 38.1048 14 37.0002Z" fill="#4E5969"/>
<path fill-rule="evenodd" clip-rule="evenodd" d="M5.57805 13.0596V14.7547H10.6194V13.0596H9.16405V7.55518H7.74795L5.25559 8.96752L6.01817 10.4813L7.13235 9.84463V13.0596H5.57805Z" fill="#4E5969"/>
<path fill-rule="evenodd" clip-rule="evenodd" d="M5.37015 26.2047V27.6953H10.4412V26.0002H7.96332L8.90357 25.0599C9.35722 24.6195 9.68661 24.2 9.88537 23.8025C10.084 23.3984 10.1838 22.976 10.1838 22.5363C10.1838 21.8504 9.9595 21.3114 9.50009 20.9366C9.05057 20.5645 8.40784 20.3869 7.58885 20.3869C7.11566 20.3869 6.65514 20.458 6.20864 20.6001C5.76938 20.742 5.3911 20.9357 5.07576 21.1825L5.00929 21.2345L5.66179 22.7684L5.7742 22.6834C6.03745 22.4844 6.29841 22.3384 6.557 22.2438C6.82356 22.1486 7.08154 22.1018 7.33145 22.1018C7.6402 22.1018 7.85148 22.1628 7.98384 22.2665C8.11109 22.3662 8.18175 22.5185 8.18175 22.7442C8.18175 22.9205 8.13197 23.1 8.02772 23.2839L8.0264 23.2864C7.92734 23.4721 7.75276 23.7021 7.49835 23.9761L5.37015 26.2047Z" fill="#4E5969"/>
<path fill-rule="evenodd" clip-rule="evenodd" d="M10.3818 38.3439C10.3818 37.9012 10.2638 37.5176 10.0234 37.1991C9.8418 36.9517 9.60318 36.7655 9.31076 36.6393C9.48925 36.544 9.6432 36.4243 9.7716 36.28C9.81646 36.2296 9.8582 36.1762 9.89678 36.1198C10.1025 35.8286 10.2036 35.486 10.2036 35.0967C10.2036 34.6931 10.0953 34.3339 9.87658 34.0235C9.65851 33.714 9.3507 33.4777 8.95863 33.3125C8.5726 33.1471 8.12504 33.0661 7.61855 33.0661C7.13909 33.0661 6.66646 33.137 6.201 33.2786C5.74263 33.4135 5.36563 33.5973 5.07434 33.8331L5.00911 33.8859L5.66091 35.3725L5.77079 35.2958C6.0466 35.1034 6.33441 34.9564 6.63431 34.8543L6.63627 34.8536C6.93669 34.745 7.21768 34.6919 7.47995 34.6919C7.74682 34.6919 7.93419 34.757 8.05911 34.8711L8.06293 34.8743C8.19155 34.9815 8.26095 35.1359 8.26095 35.3541C8.26095 35.5554 8.1915 35.6848 8.06416 35.7663C7.9264 35.8545 7.68874 35.9074 7.33145 35.9074H6.32055V37.5332H7.50965C7.88043 37.5332 8.12295 37.5895 8.2596 37.6824C8.38589 37.7683 8.45895 37.9131 8.45895 38.1459C8.45895 38.4 8.38153 38.5576 8.24893 38.6494L8.24728 38.6506C8.11183 38.7481 7.86143 38.8081 7.47005 38.8081C6.87557 38.8081 6.27613 38.6092 5.6701 38.203L5.5609 38.1298L4.91052 39.6131L4.97434 39.666C5.2594 39.9024 5.63681 40.0897 6.10152 40.2311L6.10293 40.2315C6.56871 40.3665 7.05425 40.4339 7.55915 40.4339C8.41139 40.4339 9.09714 40.256 9.604 39.888C10.1213 39.5106 10.3818 38.9922 10.3818 38.3439Z" fill="#4E5969"/>
</svg>
