<svg width="48" height="48" viewBox="0 0 48 48" fill="none" xmlns="http://www.w3.org/2000/svg">
<path fill-rule="evenodd" clip-rule="evenodd" d="M6 15C6 13.3431 7.34315 12 9 12H31C32.6569 12 34 13.3431 34 15V41C34 42.6569 32.6569 44 31 44H9C7.34315 44 6 42.6569 6 41V15ZM10 16V40H30V16H10Z" fill="#4E5969"/>
<path d="M24 6H24.01V6.01H24V6Z" fill="#4E5969"/>
<path d="M32 6H32.01V6.01H32V6Z" fill="#4E5969"/>
<path d="M40 6H40.01V6.01H40V6Z" fill="#4E5969"/>
<path d="M40 13H40.01V13.01H40V13Z" fill="#4E5969"/>
<path d="M40 21H40.01V21.01H40V21Z" fill="#4E5969"/>
<path fill-rule="evenodd" clip-rule="evenodd" d="M22 6C22 4.89543 22.8954 4 24 4H24.01C25.1146 4 26.01 4.89543 26.01 6V6.01C26.01 7.11457 25.1146 8.01 24.01 8.01H24C22.8954 8.01 22 7.11457 22 6.01V6ZM30 6C30 4.89543 30.8954 4 32 4H32.01C33.1146 4 34.01 4.89543 34.01 6V6.01C34.01 7.11457 33.1146 8.01 32.01 8.01H32C30.8954 8.01 30 7.11457 30 6.01V6ZM38 6C38 4.89543 38.8954 4 40 4H40.01C41.1146 4 42.01 4.89543 42.01 6V6.01C42.01 7.11457 41.1146 8.01 40.01 8.01H40C38.8954 8.01 38 7.11457 38 6.01V6ZM38 13C38 11.8954 38.8954 11 40 11H40.01C41.1146 11 42.01 11.8954 42.01 13V13.01C42.01 14.1146 41.1146 15.01 40.01 15.01H40C38.8954 15.01 38 14.1146 38 13.01V13ZM38 21C38 19.8954 38.8954 19 40 19H40.01C41.1146 19 42.01 19.8954 42.01 21V21.01C42.01 22.1146 41.1146 23.01 40.01 23.01H40C38.8954 23.01 38 22.1146 38 21.01V21Z" fill="#4E5969"/>
</svg>
