<svg width="48" height="48" viewBox="0 0 48 48" fill="none" xmlns="http://www.w3.org/2000/svg">
<path fill-rule="evenodd" clip-rule="evenodd" d="M31.4557 5.29274C32.6273 4.12117 34.5268 4.12117 35.6983 5.29274L41.7087 11.3031C41.8887 11.4831 42.0326 11.6957 42.1328 11.9295L40.2945 12.7174C42.1328 11.9295 42.1343 11.933 42.1343 11.933L42.1359 11.9367L42.1392 11.9446L42.1467 11.9625C42.152 11.9755 42.158 11.9903 42.1646 12.0071C42.1777 12.0406 42.1933 12.0817 42.2107 12.1304C42.2455 12.2277 42.2876 12.3552 42.3322 12.5121C42.4214 12.8258 42.5207 13.2568 42.5922 13.7979C42.7356 14.8834 42.7649 16.3974 42.3883 18.2803C41.6323 22.06 39.2742 27.1727 33.2235 33.2235C27.1727 39.2742 22.06 41.6323 18.2803 42.3883C16.3974 42.7649 14.8834 42.7356 13.7979 42.5922C13.2568 42.5207 12.8258 42.4214 12.5121 42.3322C12.3552 42.2876 12.2277 42.2455 12.1304 42.2107C12.0817 42.1933 12.0406 42.1777 12.0071 42.1646C11.9903 42.158 11.9755 42.152 11.9625 42.1467L11.9446 42.1392L11.9367 42.1359L11.933 42.1343C11.933 42.1343 11.9295 42.1328 12.7174 40.2945L11.9295 42.1328C11.6957 42.0326 11.4831 41.8887 11.3031 41.7087L5.29274 35.6983C4.12117 34.5268 4.12117 32.6273 5.29274 31.4557L10.9496 25.7988C12.1212 24.6273 14.0207 24.6273 15.1922 25.7988L19.1231 29.7297C19.3705 29.5909 19.653 29.4249 19.9659 29.2294C21.2658 28.4169 23.0886 27.0949 25.0917 25.0917C27.0949 23.0886 28.4169 21.2658 29.2294 19.9659C29.4249 19.653 29.5909 19.3705 29.7297 19.1231L25.7988 15.1922C24.6273 14.0207 24.6273 12.1212 25.7988 10.9496L31.4557 5.29274ZM32.1628 18.7278C34.0198 19.4706 34.0193 19.4717 34.0193 19.4717L34.0188 19.473L34.0177 19.4757L34.0151 19.4822L34.0082 19.499L33.9878 19.5478C33.9712 19.587 33.9485 19.6396 33.9194 19.7047C33.8611 19.8349 33.7771 20.0156 33.6644 20.2409C33.4391 20.6916 33.099 21.3217 32.6214 22.0859C31.6661 23.6143 30.1596 25.6807 27.9202 27.9202C25.6807 30.1596 23.6143 31.6661 22.0859 32.6214C21.3217 33.099 20.6916 33.4391 20.2409 33.6644C20.0156 33.7771 19.8349 33.8611 19.7047 33.9194C19.6396 33.9485 19.587 33.9712 19.5478 33.9878L19.499 34.0082L19.4822 34.0151L19.4757 34.0177L19.473 34.0188L19.4717 34.0193C19.4717 34.0193 19.4706 34.0198 18.7278 32.1628L19.4706 34.0198C18.7277 34.3169 17.8793 34.1427 17.3136 33.577L13.0709 29.3344L8.82827 33.577L13.781 38.5298C13.9177 38.5617 14.0984 38.5971 14.3216 38.6266C14.9929 38.7153 16.0642 38.7523 17.4958 38.466C20.3452 37.8961 24.7785 36.0116 30.395 30.395C36.0116 24.7785 37.8961 20.3452 38.466 17.4958C38.7523 16.0642 38.7153 14.9929 38.6266 14.3216C38.5971 14.0984 38.5617 13.9177 38.5298 13.781L33.577 8.82828L29.3344 13.0709L33.577 17.3136C34.1427 17.8793 34.3169 18.7277 34.0198 19.4706L32.1628 18.7278Z" fill="#4E5969"/>
</svg>
