<svg width="48" height="48" viewBox="0 0 48 48" fill="none" xmlns="http://www.w3.org/2000/svg">
<path fill-rule="evenodd" clip-rule="evenodd" d="M14 37L14 23H18L18 37H14Z" fill="#4E5969"/>
<path fill-rule="evenodd" clip-rule="evenodd" d="M27 16H18V22H27C28.6569 22 30 20.6569 30 19C30 17.3431 28.6569 16 27 16ZM14 12V26H27C30.866 26 34 22.866 34 19C34 15.134 30.866 12 27 12H14Z" fill="#4E5969"/>
<path fill-rule="evenodd" clip-rule="evenodd" d="M4.5 6C4.5 4.06701 6.067 2.5 8 2.5H41C42.933 2.5 44.5 4.067 44.5 6V42C44.5 43.933 42.933 45.5 41 45.5H8C6.067 45.5 4.5 43.933 4.5 42V6ZM9.5 7.5V40.5H39.5V7.5H9.5Z" fill="#4E5969"/>
</svg>
