<svg width="48" height="48" viewBox="0 0 48 48" fill="none" xmlns="http://www.w3.org/2000/svg">
<path fill-rule="evenodd" clip-rule="evenodd" d="M5 9C5 6.79086 6.79086 5 9 5H39C41.2091 5 43 6.79086 43 9V39C43 41.2091 41.2091 43 39 43H9C6.79086 43 5 41.2091 5 39V9ZM39 9H9V39H39V9ZM14.5 13.5C15.6046 13.5 16.5 14.3954 16.5 15.5V28C16.5 29.1046 15.6046 30 14.5 30C13.3954 30 12.5 29.1046 12.5 28V15.5C12.5 14.3954 13.3954 13.5 14.5 13.5ZM30.5 13.5C31.6046 13.5 32.5 14.3954 32.5 15.5V32C32.5 33.1046 31.6046 34 30.5 34C29.3954 34 28.5 33.1046 28.5 32V15.5C28.5 14.3954 29.3954 13.5 30.5 13.5ZM22.5 14.5C23.6046 14.5 24.5 15.3954 24.5 16.5V23.5C24.5 24.6046 23.6046 25.5 22.5 25.5C21.3954 25.5 20.5 24.6046 20.5 23.5V16.5C20.5 15.3954 21.3954 14.5 22.5 14.5Z" fill="#4E5969"/>
</svg>
