<?xml version="1.0" encoding="UTF-8"?>
<svg width="512px" height="512px" viewBox="0 0 512 512" version="1.1" xmlns="http://www.w3.org/2000/svg">
    <g stroke="none" stroke-width="1" fill="none" fill-rule="evenodd">
        <path d="M336.1,149.5c10.1,0,19.3,1.3,27.8,3.6c31.4,8.4,54.8,29.1,66.6,58.8c3.3,8.3,5,17.1,5,26.3c0,42.4-34.4,76.8-76.8,76.8c-16.8,0-32.3-5.4-44.9-14.6c-12.6-9.2-21.9-22.2-26.3-37.2c-1.2-4.1-1.8-8.4-1.8-12.8c0-25.4,20.6-46,46-46c8.4,0,16.2,2.3,23,6.2c6.8,3.9,12.2,9.6,15.6,16.4c1.2,2.4,1.8,5,1.8,7.7c0,9.6-7.8,17.4-17.4,17.4c-3.2,0-6.1-0.9-8.7-2.4c-2.6-1.5-4.6-3.7-5.8-6.3c-0.4-0.9-0.6-1.9-0.6-2.9c0-3.6,2.9-6.5,6.5-6.5c1.2,0,2.3,0.3,3.2,0.9c0.9,0.6,1.6,1.4,2,2.4c0.1,0.3,0.2,0.6,0.2,0.9c0,1.4-1.1,2.5-2.5,2.5c-0.5,0-0.9-0.1-1.3-0.4c-0.4-0.3-0.7-0.7-0.8-1.1c-0.1-0.2-0.1-0.4-0.1-0.6c0-0.5,0.4-0.9,0.9-0.9c0.2,0,0.4,0.1,0.5,0.2c0.1,0.1,0.2,0.3,0.3,0.4c0,0.1,0.1,0.2,0.1,0.3c0,0.2-0.2,0.4-0.4,0.4c-0.1,0-0.2,0-0.2-0.1c-0.1-0.1-0.1-0.1-0.1-0.2c0-0.1,0-0.1,0-0.1c0-0.1,0.1-0.2,0.2-0.2c0.1,0,0.1,0,0.1,0.1c0,0,0.1,0.1,0.1,0.1c0,0,0,0.1,0,0.1c0,0.1-0.1,0.1-0.1,0.1c0,0-0.1,0-0.1,0c0,0-0.1-0.1-0.1-0.1c0,0,0-0.1,0-0.1c0-0.1,0.1-0.1,0.1-0.1c0,0,0.1,0,0.1,0.1z" fill="currentColor"></path>
    </g>
</svg> 