<svg width="48" height="48" viewBox="0 0 48 48" fill="none" xmlns="http://www.w3.org/2000/svg">
<path fill-rule="evenodd" clip-rule="evenodd" d="M17.2312 8.27285C17.7843 9.22897 17.4576 10.4524 16.5015 11.0055C12.0127 13.6021 9 18.4504 9 24C9 32.2843 15.7157 39 24 39C32.2843 39 39 32.2843 39 24C39 18.4504 35.9873 13.6021 31.4985 11.0055C30.5424 10.4524 30.2157 9.22897 30.7688 8.27285C31.3219 7.31672 32.5453 6.99 33.5015 7.54309C39.1753 10.8253 43 16.9648 43 24C43 34.4934 34.4934 43 24 43C13.5066 43 5 34.4934 5 24C5 16.9648 8.82465 10.8253 14.4985 7.54309C15.4547 6.99 16.6781 7.31672 17.2312 8.27285Z" fill="#4E5969"/>
<path fill-rule="evenodd" clip-rule="evenodd" d="M24 3C25.1046 3 26 3.89543 26 5V27C26 28.1046 25.1046 29 24 29C22.8954 29 22 28.1046 22 27V5C22 3.89543 22.8954 3 24 3Z" fill="#4E5969"/>
</svg>
