<svg width="48" height="48" viewBox="0 0 48 48" fill="none" xmlns="http://www.w3.org/2000/svg">
<circle cx="24" cy="24" r="20" fill="#4E5969"/>
<path fill-rule="evenodd" clip-rule="evenodd" d="M20.6001 19.0174C20.6025 18.4687 20.7987 17.86 21.2366 17.4024C21.641 16.9798 22.4291 16.5 23.9886 16.5C25.453 16.5 26.4714 17.1992 26.9907 17.993C27.5453 18.8406 27.436 19.5519 27.1728 19.9073C26.8445 20.3505 26.4369 20.7598 25.9443 21.2032C25.7945 21.3381 25.6098 21.4989 25.4117 21.6712C25.0575 21.9794 24.6607 22.3247 24.3443 22.6258C23.2208 23.6948 22.0005 25.1868 22.0005 27.5C22.0005 28.6046 22.8959 29.5 24.0005 29.5C25.1051 29.5 26.0005 28.6046 26.0005 27.5C26.0005 26.8132 26.2802 26.3052 27.1016 25.5236C27.377 25.2616 27.6245 25.0474 27.9078 24.8023C28.1173 24.6211 28.3463 24.423 28.6205 24.1761C29.1909 23.6626 29.8256 23.0461 30.387 22.2881C31.9032 20.2412 31.5487 17.6536 30.338 15.803C29.092 13.8985 26.8249 12.5 23.9886 12.5C21.5341 12.5 19.6312 13.2943 18.3464 14.6371C17.0958 15.9442 16.6047 17.5911 16.6001 19.0073L16.6001 19.4786C16.6001 20.5832 17.4955 21.4786 18.6001 21.4786C19.7047 21.4786 20.6001 20.5832 20.6001 19.4786V19.0174Z" fill="white"/>
<path fill-rule="evenodd" clip-rule="evenodd" d="M24.0068 30.5C25.1114 30.5 26.0068 31.3954 26.0068 32.5V33.5C26.0068 34.6046 25.1114 35.5 24.0068 35.5C22.9023 35.5 22.0068 34.6046 22.0068 33.5V32.5C22.0068 31.3954 22.9023 30.5 24.0068 30.5Z" fill="white"/>
</svg>
