<?xml version="1.0" encoding="UTF-8"?>
<svg width="512px" height="512px" viewBox="0 0 512 512" version="1.1" xmlns="http://www.w3.org/2000/svg">
    <g stroke="none" stroke-width="1" fill="none" fill-rule="evenodd">
        <path d="M467.1,334.7c0,14.1-42.2,25.5-94.3,25.5s-94.3-11.4-94.3-25.5c0-14.1,42.2-25.5,94.3-25.5S467.1,320.6,467.1,334.7z M467.1,289.4c0,14.1-42.2,25.5-94.3,25.5s-94.3-11.4-94.3-25.5c0-14.1,42.2-25.5,94.3-25.5S467.1,275.3,467.1,289.4z M467.1,244.1c0,14.1-42.2,25.5-94.3,25.5s-94.3-11.4-94.3-25.5c0-14.1,42.2-25.5,94.3-25.5S467.1,230,467.1,244.1z M233.2,334.7c0,14.1-42.2,25.5-94.3,25.5s-94.3-11.4-94.3-25.5c0-14.1,42.2-25.5,94.3-25.5S233.2,320.6,233.2,334.7z M233.2,289.4c0,14.1-42.2,25.5-94.3,25.5s-94.3-11.4-94.3-25.5c0-14.1,42.2-25.5,94.3-25.5S233.2,275.3,233.2,289.4z M233.2,244.1c0,14.1-42.2,25.5-94.3,25.5s-94.3-11.4-94.3-25.5c0-14.1,42.2-25.5,94.3-25.5S233.2,230,233.2,244.1z" fill="currentColor"></path>
    </g>
</svg> 