<svg width="48" height="48" viewBox="0 0 48 48" fill="none" xmlns="http://www.w3.org/2000/svg">
<path fill-rule="evenodd" clip-rule="evenodd" d="M24 10C16.268 10 10 16.268 10 24C10 31.732 16.268 38 24 38C30.5207 38 36.0048 33.5402 37.5591 27.5015C37.8344 26.4318 38.9247 25.7878 39.9944 26.0631C41.0642 26.3384 41.7081 27.4288 41.4328 28.4985C39.4347 36.2616 32.39 42 24 42C14.0589 42 6 33.9411 6 24C6 14.0589 14.0589 6 24 6C31.5572 6 38.0221 10.6566 40.6908 17.2496C41.1053 18.2734 40.6113 19.4394 39.5874 19.8539C38.5635 20.2683 37.3975 19.7743 36.9831 18.7504C34.9047 13.616 29.8723 10 24 10Z" fill="#4E5969"/>
<path fill-rule="evenodd" clip-rule="evenodd" d="M40 6C41.1046 6 42 6.89543 42 8V18C42 19.1046 41.1046 20 40 20H30C28.8954 20 28 19.1046 28 18C28 16.8954 28.8954 16 30 16H38V8C38 6.89543 38.8954 6 40 6Z" fill="#4E5969"/>
</svg>
