<svg width="48" height="48" viewBox="0 0 48 48" fill="none" xmlns="http://www.w3.org/2000/svg">
<path d="M18 26H19V27H18V26Z" fill="#4E5969"/>
<path d="M29 26H30V27H29V26Z" fill="#4E5969"/>
<path fill-rule="evenodd" clip-rule="evenodd" d="M17 7C17 5.89543 17.8954 5 19 5H29C30.1046 5 31 5.89543 31 7C31 8.10457 30.1046 9 29 9H26V11H39C40.1046 11 41 11.8954 41 13V40C41 41.1046 40.1046 42 39 42H9C7.89543 42 7 41.1046 7 40V13C7 11.8954 7.89543 11 9 11H22V9H19C17.8954 9 17 8.10457 17 7ZM11 15V38H37V15H11ZM3 19C4.10457 19 5 19.8954 5 21V32C5 33.1046 4.10457 34 3 34C1.89543 34 1 33.1046 1 32V21C1 19.8954 1.89543 19 3 19ZM45 19C46.1046 19 47 19.8954 47 21V32C47 33.1046 46.1046 34 45 34C43.8954 34 43 33.1046 43 32V21C43 19.8954 43.8954 19 45 19ZM16 26C16 24.8954 16.8954 24 18 24H19C20.1046 24 21 24.8954 21 26V27C21 28.1046 20.1046 29 19 29H18C16.8954 29 16 28.1046 16 27V26ZM27 26C27 24.8954 27.8954 24 29 24H30C31.1046 24 32 24.8954 32 26V27C32 28.1046 31.1046 29 30 29H29C27.8954 29 27 28.1046 27 27V26Z" fill="#4E5969"/>
</svg>
