<svg width="48" height="48" viewBox="0 0 48 48" fill="none" xmlns="http://www.w3.org/2000/svg">
<path fill-rule="evenodd" clip-rule="evenodd" d="M24 3.69629L24.9922 4.26331C28.2601 6.13066 32.0554 7.32631 35.0916 8.05502C36.5985 8.41666 37.8935 8.6575 38.8078 8.80739C39.2645 8.88225 39.6249 8.93421 39.8677 8.96708C39.9891 8.98351 40.081 8.99515 40.1408 9.00248L40.2059 9.01031L40.2207 9.01202L41.9999 9.20971V26.1653L41.9727 26.3286L39.9999 25.9998C41.9727 26.3286 41.9723 26.3308 41.9723 26.3308L41.9719 26.3333L41.9709 26.3392L41.9683 26.3541L41.9605 26.3972C41.9542 26.4316 41.9454 26.4774 41.9339 26.534C41.9109 26.647 41.877 26.8033 41.8295 26.9976C41.7347 27.3862 41.5854 27.9287 41.361 28.5849C40.913 29.8951 40.1605 31.6723 38.9327 33.5839C36.4606 37.4332 32.0856 41.7821 24.5528 43.9489L24 44.1079L23.4471 43.9489C15.9143 41.7821 11.5392 37.4332 9.06706 33.584C7.83931 31.6723 7.08681 29.8951 6.63873 28.5849C6.41433 27.9287 6.26508 27.3862 6.17023 26.9976C6.12277 26.8033 6.08883 26.647 6.06584 26.534C6.05435 26.4774 6.04558 26.4316 6.03923 26.3972L6.03147 26.3541L6.02887 26.3392L6.02788 26.3333L6.02746 26.3308C6.02746 26.3308 6.02709 26.3286 7.99988 25.9998L6.02709 26.3286L5.99988 26.1653V9.20971L7.77901 9.01202L7.79386 9.01031L7.859 9.00248C7.91875 8.99515 8.01065 8.98351 8.13204 8.96708C8.37487 8.93421 8.73527 8.88225 9.19195 8.80739C10.1063 8.6575 11.4013 8.41666 12.9081 8.05502C15.9444 7.32631 19.7398 6.13065 23.0077 4.2633L24 3.69629ZM9.99988 12.7281V25.805C10.0133 25.8673 10.0317 25.9491 10.0561 26.0489C10.1253 26.3324 10.2417 26.7588 10.4235 27.2905C10.788 28.3562 11.4105 29.8307 12.4327 31.4224C14.4021 34.4887 17.8776 38.0334 23.9999 39.9392C30.1222 38.0334 33.5977 34.4888 35.5671 31.4224C36.5893 29.8307 37.2118 28.3562 37.5762 27.2905C37.7581 26.7588 37.8745 26.3324 37.9437 26.0489C37.968 25.9491 37.9865 25.8673 37.9999 25.805V12.7281C37.0207 12.5643 35.6907 12.3124 34.1581 11.9446C31.2264 11.2409 27.47 10.0937 23.9999 8.27869C20.5299 10.0937 16.7734 11.2409 13.8416 11.9446C12.3091 12.3124 10.979 12.5643 9.99988 12.7281Z" fill="#4E5969"/>
<path fill-rule="evenodd" clip-rule="evenodd" d="M34.2388 16.7505C35.0198 17.5315 35.0198 18.7979 34.2388 19.5789L24.2388 29.5789C23.4577 30.36 22.1914 30.36 21.4103 29.5789L15.4103 23.5789C14.6293 22.7979 14.6293 21.5315 15.4103 20.7505C16.1914 19.9694 17.4577 19.9694 18.2388 20.7505L22.8245 25.3363L31.4103 16.7505C32.1914 15.9694 33.4577 15.9694 34.2388 16.7505Z" fill="#4E5969"/>
</svg>
