<svg width="48" height="48" viewBox="0 0 48 48" fill="none" xmlns="http://www.w3.org/2000/svg">
<path fill-rule="evenodd" clip-rule="evenodd" d="M10 8V40H38V15.7604L31.1019 8H30V21C30 22.6569 28.6569 24 27 24H15C13.3431 24 12 22.6569 12 21V8H10ZM9 4C7.34314 4 6 5.34315 6 7V41C6 42.6569 7.34315 44 9 44H39C40.6569 44 42 42.6569 42 41V15.3802C42 14.6455 41.7304 13.9363 41.2422 13.3871L33.7932 5.00691C33.2239 4.36644 32.4078 4 31.5509 4H9ZM16 8V20H19V13C19 11.8954 19.8954 11 21 11C22.1046 11 23 11.8954 23 13V20H26V8H16Z" fill="#4E5969"/>
</svg>
