<svg width="48" height="48" viewBox="0 0 48 48" fill="none" xmlns="http://www.w3.org/2000/svg">
<path fill-rule="evenodd" clip-rule="evenodd" d="M13 30.9999C10.7909 30.9999 9 32.7907 9 34.9999C9 37.209 10.7909 38.9999 13 38.9999C15.2091 38.9999 17 37.209 17 34.9999C17 33.8948 16.5545 32.8975 15.8284 32.1715C15.1024 31.4454 14.1051 30.9999 13 30.9999ZM5 34.9999C5 30.5816 8.58172 26.9999 13 26.9999C15.2086 26.9999 17.2113 27.8975 18.6569 29.343L17.2426 30.7572M18.6569 29.343C20.1024 30.7886 21 32.7913 21 34.9999C21 39.4182 17.4183 42.9999 13 42.9999C8.58172 42.9999 5 39.4182 5 34.9999" fill="#4E5969"/>
<path fill-rule="evenodd" clip-rule="evenodd" d="M35 30.9999C33.8949 30.9999 32.8976 31.4454 32.1716 32.1715C31.4455 32.8975 31 33.8948 31 34.9999C31 37.209 32.7909 38.9999 35 38.9999C37.2091 38.9999 39 37.209 39 34.9999C39 32.7907 37.2091 30.9999 35 30.9999ZM29.3431 29.343C30.7887 27.8975 32.7914 26.9999 35 26.9999C39.4183 26.9999 43 30.5816 43 34.9999C43 39.4182 39.4183 42.9999 35 42.9999C30.5817 42.9999 27 39.4182 27 34.9999C27 32.7913 27.8976 30.7885 29.3431 29.343Z" fill="#4E5969"/>
<path fill-rule="evenodd" clip-rule="evenodd" d="M6.29289 6.29282C7.07394 5.51177 8.34027 5.51177 9.12132 6.29282L24 21.1715L38.8787 6.29282C39.6597 5.51177 40.9261 5.51177 41.7071 6.29282C42.4882 7.07387 42.4882 8.3402 41.7071 9.12124L26.8284 23.9999L32.1716 29.3431C32.9526 30.1241 32.9526 31.3904 32.1716 32.1715C31.3905 32.9525 30.1242 32.9525 29.3431 32.1715L24 26.8284L18.6569 32.1715C17.8758 32.9525 16.6095 32.9525 15.8284 32.1715C15.0474 31.3904 15.0474 30.1241 15.8284 29.3431L21.1716 23.9999L6.29289 9.12124C5.51185 8.3402 5.51185 7.07387 6.29289 6.29282Z" fill="#4E5969"/>
</svg>
