<svg width="48" height="48" viewBox="0 0 48 48" fill="none" xmlns="http://www.w3.org/2000/svg">
<path fill-rule="evenodd" clip-rule="evenodd" d="M22 9C14.8203 9 9 14.8203 9 22C9 29.1797 14.8203 35 22 35C25.5904 35 28.8377 33.5471 31.1924 31.1924C33.5471 28.8377 35 25.5904 35 22C35 14.8203 29.1797 9 22 9ZM5 22C5 12.6112 12.6112 5 22 5C31.3888 5 39 12.6112 39 22C39 25.9729 37.6353 29.6298 35.3519 32.5235L42.9142 40.0858C43.6953 40.8668 43.6953 42.1332 42.9142 42.9142C42.1332 43.6953 40.8668 43.6953 40.0858 42.9142L32.5235 35.3519C29.6298 37.6353 25.9729 39 22 39C12.6112 39 5 31.3888 5 22Z" fill="#4E5969"/>
</svg>
