<svg width="48" height="48" viewBox="0 0 48 48" fill="none" xmlns="http://www.w3.org/2000/svg">
<path fill-rule="evenodd" clip-rule="evenodd" d="M5 10C5 7.79086 6.79086 6 9 6C11.2091 6 13 7.79086 13 10C13 11.4806 12.1956 12.7733 11 13.4649L11 22H14C15.1046 22 16 22.8954 16 24C16 25.1046 15.1046 26 14 26H11V36H14C15.1046 36 16 36.8954 16 38C16 39.1046 15.1046 40 14 40H11C11 41.1046 10.1046 42 9 42C7.89543 42 7 41.1046 7 40V13.4649C5.8044 12.7733 5 11.4806 5 10ZM20 10C20 8.89543 20.8954 8 22 8H41C42.1046 8 43 8.89543 43 10C43 11.1046 42.1046 12 41 12H22C20.8954 12 20 11.1046 20 10ZM20 24C20 22.8954 20.8954 22 22 22H41C42.1046 22 43 22.8954 43 24C43 25.1046 42.1046 26 41 26H22C20.8954 26 20 25.1046 20 24ZM20 38C20 36.8954 20.8954 36 22 36H41C42.1046 36 43 36.8954 43 38C43 39.1046 42.1046 40 41 40H22C20.8954 40 20 39.1046 20 38Z" fill="#4E5969"/>
</svg>
