<svg width="48" height="48" viewBox="0 0 48 48" fill="none" xmlns="http://www.w3.org/2000/svg">
<path fill-rule="evenodd" clip-rule="evenodd" d="M16.8695 6.19707C17.2302 4.89861 18.4125 4 19.7601 4H28.2399C29.5875 4 30.7698 4.89861 31.1305 6.19707L32.1531 9.87856L35.853 8.92337C37.1578 8.5865 38.5272 9.16106 39.201 10.3281L43.4409 17.6719C44.1147 18.839 43.9276 20.3121 42.9834 21.2737L40.3066 24L42.9834 26.7263C43.9276 27.6879 44.1147 29.1611 43.4409 30.3281L39.201 37.6719C38.5272 38.839 37.1578 39.4135 35.853 39.0766L32.1531 38.1214L31.1305 41.8029C30.7698 43.1014 29.5875 44 28.2399 44H19.7601C18.4125 44 17.2302 43.1014 16.8695 41.8029L15.847 38.1216L12.1479 39.0766C10.843 39.4135 9.47367 38.839 8.79986 37.6719L4.55995 30.3281C3.88614 29.1611 4.07323 27.6879 5.01739 26.7263L7.69426 24L5.01739 21.2737C4.07324 20.3121 3.88614 18.839 4.55995 17.6719L8.79986 10.3281C9.47368 9.16106 10.843 8.5865 12.1479 8.92337L15.847 9.87836L16.8695 6.19707ZM15.5842 37.1756L15.5845 37.1769L15.5842 37.1756ZM20.5202 8L19.4382 11.895C19.0005 13.4708 17.3813 14.4056 15.7978 13.9968L11.8839 12.9864L8.40409 19.0136L11.2364 21.8982C12.3822 23.0652 12.3822 24.9349 11.2364 26.1018L8.40409 28.9864L11.8839 35.0136L15.7978 34.0032C17.3813 33.5944 19.0005 34.5292 19.4382 36.105L20.5202 40H27.4798L28.5618 36.1048C28.9995 34.529 30.6188 33.5942 32.2023 34.003L36.1169 35.0136L39.5967 28.9864L36.7645 26.1018C35.6187 24.9349 35.6187 23.0652 36.7645 21.8982L39.5967 19.0136L36.1169 12.9864L32.2023 13.997C30.6188 14.4058 28.9995 13.471 28.5618 11.8952L27.4798 8H20.5202ZM24 20C21.7909 20 20 21.7909 20 24C20 26.2091 21.7909 28 24 28C26.2091 28 28 26.2091 28 24C28 21.7909 26.2091 20 24 20ZM16 24C16 19.5817 19.5817 16 24 16C28.4183 16 32 19.5817 32 24C32 28.4183 28.4183 32 24 32C19.5817 32 16 28.4183 16 24Z" fill="#4E5969"/>
</svg>
