<svg width="48" height="48" viewBox="0 0 48 48" fill="none" xmlns="http://www.w3.org/2000/svg">
<path d="M23 8H25V10H23V8Z" fill="#4E5969"/>
<path d="M23 23H25V25H23V23Z" fill="#4E5969"/>
<path d="M23 38H25V40H23V38Z" fill="#4E5969"/>
<path fill-rule="evenodd" clip-rule="evenodd" d="M21 8C21 6.89543 21.8954 6 23 6H25C26.1046 6 27 6.89543 27 8V10C27 11.1046 26.1046 12 25 12H23C21.8954 12 21 11.1046 21 10V8ZM21 23C21 21.8954 21.8954 21 23 21H25C26.1046 21 27 21.8954 27 23V25C27 26.1046 26.1046 27 25 27H23C21.8954 27 21 26.1046 21 25V23ZM21 38C21 36.8954 21.8954 36 23 36H25C26.1046 36 27 36.8954 27 38V40C27 41.1046 26.1046 42 25 42H23C21.8954 42 21 41.1046 21 40V38Z" fill="#4E5969"/>
<path d="M37 8H39V10H37V8Z" fill="#4E5969"/>
<path d="M37 23H39V25H37V23Z" fill="#4E5969"/>
<path d="M37 38H39V40H37V38Z" fill="#4E5969"/>
<path fill-rule="evenodd" clip-rule="evenodd" d="M35 8C35 6.89543 35.8954 6 37 6H39C40.1046 6 41 6.89543 41 8V10C41 11.1046 40.1046 12 39 12H37C35.8954 12 35 11.1046 35 10V8ZM35 23C35 21.8954 35.8954 21 37 21H39C40.1046 21 41 21.8954 41 23V25C41 26.1046 40.1046 27 39 27H37C35.8954 27 35 26.1046 35 25V23ZM35 38C35 36.8954 35.8954 36 37 36H39C40.1046 36 41 36.8954 41 38V40C41 41.1046 40.1046 42 39 42H37C35.8954 42 35 41.1046 35 40V38Z" fill="#4E5969"/>
<path d="M9 8H11V10H9V8Z" fill="#4E5969"/>
<path d="M9 23H11V25H9V23Z" fill="#4E5969"/>
<path d="M9 38H11V40H9V38Z" fill="#4E5969"/>
<path fill-rule="evenodd" clip-rule="evenodd" d="M7 8C7 6.89543 7.89543 6 9 6H11C12.1046 6 13 6.89543 13 8V10C13 11.1046 12.1046 12 11 12H9C7.89543 12 7 11.1046 7 10V8ZM7 23C7 21.8954 7.89543 21 9 21H11C12.1046 21 13 21.8954 13 23V25C13 26.1046 12.1046 27 11 27H9C7.89543 27 7 26.1046 7 25V23ZM7 38C7 36.8954 7.89543 36 9 36H11C12.1046 36 13 36.8954 13 38V40C13 41.1046 12.1046 42 11 42H9C7.89543 42 7 41.1046 7 40V38Z" fill="#4E5969"/>
</svg>
