<svg width="48" height="48" viewBox="0 0 48 48" fill="none" xmlns="http://www.w3.org/2000/svg">
<path d="M22.5517 6.9086C22.7351 6.53698 23.265 6.53698 23.4484 6.9086L28.4677 17.0787C28.5405 17.2263 28.6813 17.3286 28.8441 17.3522L40.0675 18.9831C40.4776 19.0427 40.6414 19.5467 40.3446 19.8359L32.2233 27.7523C32.1055 27.8672 32.0517 28.0327 32.0795 28.1949L33.9967 39.3729C34.0667 39.7814 33.638 40.0928 33.2712 39.9L23.2327 34.6224C23.087 34.5459 22.913 34.5459 22.7674 34.6224L12.7288 39.9C12.362 40.0928 11.9333 39.7814 12.0034 39.3729L13.9206 28.1949C13.9484 28.0327 13.8946 27.8672 13.7768 27.7523L5.65544 19.8359C5.35868 19.5467 5.52243 19.0427 5.93254 18.9831L17.1559 17.3522C17.3188 17.3286 17.4596 17.2263 17.5324 17.0787L22.5517 6.9086Z" fill="#4E5969"/>
<path fill-rule="evenodd" clip-rule="evenodd" d="M20.7582 6.02347C21.6752 4.16536 24.3248 4.16535 25.2419 6.02347L29.9121 15.4864L40.3551 17.0039C42.4057 17.3018 43.2245 19.8218 41.7407 21.2681L34.184 28.634L35.9679 39.0348C36.3182 41.0771 34.1746 42.6345 32.3405 41.6702L23 36.7597L13.6595 41.6702C11.8255 42.6345 9.68188 41.0771 10.0322 39.0348L11.816 28.634L4.25941 21.2681C2.77562 19.8218 3.59439 17.3018 5.64494 17.0039L16.0879 15.4864L20.7582 6.02347ZM23 10.5192L19.3259 17.9639C18.9617 18.7017 18.2578 19.2131 17.4435 19.3315L9.22788 20.5253L15.1728 26.3201C15.762 26.8945 16.0309 27.722 15.8918 28.5329L14.4884 36.7154L21.8367 32.8522C22.565 32.4693 23.4351 32.4693 24.1634 32.8522L31.5117 36.7154L30.1083 28.5329C29.9692 27.722 30.2381 26.8945 30.8273 26.3201L36.7722 20.5253L28.5565 19.3315C27.7423 19.2131 27.0383 18.7017 26.6742 17.9639L23 10.5192Z" fill="#4E5969"/>
</svg>
