<svg width="48" height="48" viewBox="0 0 48 48" fill="none" xmlns="http://www.w3.org/2000/svg">
<path fill-rule="evenodd" clip-rule="evenodd" d="M5 16H43V32H5V16ZM9 20V28H39V20H9Z" fill="#4E5969"/>
<path fill-rule="evenodd" clip-rule="evenodd" d="M5 7C5 5.34314 6.34315 4 8 4H40C41.6569 4 43 5.34315 43 7V20H5V7ZM9 8V16H39V8H9Z" fill="#4E5969"/>
<path fill-rule="evenodd" clip-rule="evenodd" d="M5 28H43V41C43 42.6569 41.6569 44 40 44H8C6.34315 44 5 42.6569 5 41V28ZM9 32V40H39V32H9Z" fill="#4E5969"/>
<path fill-rule="evenodd" clip-rule="evenodd" d="M11 34H15.02V38.02H11V34Z" fill="#4E5969"/>
<path fill-rule="evenodd" clip-rule="evenodd" d="M11 10H15.02V14.02H11V10Z" fill="#4E5969"/>
<path fill-rule="evenodd" clip-rule="evenodd" d="M11 22H15.02V26.02H11V22Z" fill="#4E5969"/>
</svg>
