<svg width="48" height="48" viewBox="0 0 48 48" fill="none" xmlns="http://www.w3.org/2000/svg">
<path fill-rule="evenodd" clip-rule="evenodd" d="M30.1508 5.5481C30.9527 4.78844 32.2186 4.82265 32.9782 5.62452L40.853 13.9368C42.6644 15.8488 41.3089 19 38.6751 19H5C3.89543 19 3 18.1046 3 17C3 15.8954 3.89543 15 5 15H36.3503L30.0744 8.37549C29.3147 7.57363 29.349 6.30776 30.1508 5.5481Z" fill="#4E5969"/>
<path fill-rule="evenodd" clip-rule="evenodd" d="M17.8492 42.4519C17.0473 43.2116 15.7814 43.1774 15.0218 42.3755L7.14701 34.0632C5.33563 32.1512 6.69106 29 9.32487 29L43 29C44.1046 29 45 29.8954 45 31C45 32.1046 44.1046 33 43 33L11.6497 33L17.9256 39.6245C18.6853 40.4264 18.651 41.6922 17.8492 42.4519Z" fill="#4E5969"/>
</svg>
