<svg width="48" height="48" viewBox="0 0 48 48" fill="none" xmlns="http://www.w3.org/2000/svg">
<path fill-rule="evenodd" clip-rule="evenodd" d="M38.3796 18.1055L34.1361 22.3491C32.9645 23.5207 31.065 23.5207 29.8935 22.3491L25.6508 18.1065C24.4792 16.9349 24.4792 15.0354 25.6508 13.8638L29.8944 9.62026C26.8853 9.19271 23.7203 10.1375 21.4082 12.4496C18.3316 15.5262 17.6761 20.1129 19.453 23.8326L20.0627 25.1088L9.38736 35.7841L12.2158 38.6126L22.8911 27.9372L24.1673 28.5469C27.887 30.3238 32.4737 29.6683 35.5503 26.5917C37.8624 24.2796 38.8072 21.1146 38.3796 18.1055ZM37.7959 13.0324C38.8191 12.0092 40.5666 12.2988 41.1852 13.6342C43.5817 18.8083 42.6501 25.1488 38.3787 29.4202C34.4279 33.371 28.7067 34.4646 23.7755 32.7097L14.3371 42.1481C13.1655 43.3197 11.266 43.3197 10.0945 42.1481L5.85182 37.9054C4.68025 36.7339 4.68025 34.8344 5.85182 33.6628L15.2902 24.2244C13.5353 19.2932 14.6289 13.572 18.5797 9.62117C22.8511 5.34983 29.1916 4.41818 34.3657 6.81473C35.7011 7.43325 35.9907 9.18077 34.9675 10.204L29.1863 15.9851L32.0148 18.8136L37.7959 13.0324Z" fill="#4E5969"/>
</svg>
