<svg width="48" height="48" viewBox="0 0 48 48" fill="none" xmlns="http://www.w3.org/2000/svg">
<path fill-rule="evenodd" clip-rule="evenodd" d="M8 33C9.10457 33 10 33.8954 10 35V39H38V35C38 33.8954 38.8954 33 40 33C41.1046 33 42 33.8954 42 35V41C42 42.1046 41.1046 43 40 43H8C6.89543 43 6 42.1046 6 41V35C6 33.8954 6.89543 33 8 33Z" fill="#4E5969"/>
<path fill-rule="evenodd" clip-rule="evenodd" d="M24.0012 6C24.5316 6 25.0404 6.21071 25.4154 6.58579L34.4865 15.6569C35.2675 16.4379 35.2675 17.7042 34.4865 18.4853C33.7054 19.2663 32.4391 19.2663 31.6581 18.4853L24.0012 10.8284L16.3444 18.4853C15.5633 19.2663 14.297 19.2663 13.5159 18.4853C12.7349 17.7042 12.7349 16.4379 13.5159 15.6569L22.587 6.58579C22.9621 6.21071 23.4708 6 24.0012 6Z" fill="#4E5969"/>
<path fill-rule="evenodd" clip-rule="evenodd" d="M24.0023 6.14209C25.1069 6.14209 26.0023 7.03752 26.0023 8.14209L26.0023 33.1421C26.0023 34.2467 25.1069 35.1421 24.0023 35.1421C22.8977 35.1421 22.0023 34.2467 22.0023 33.1421L22.0023 8.14209C22.0023 7.03752 22.8977 6.14209 24.0023 6.14209Z" fill="#4E5969"/>
</svg>
