<svg width="48" height="48" viewBox="0 0 48 48" fill="none" xmlns="http://www.w3.org/2000/svg">
<path fill-rule="evenodd" clip-rule="evenodd" d="M18 10C15.2386 10 13 12.2386 13 15C13 17.7614 15.2386 20 18 20C20.7614 20 23 17.7614 23 15C23 12.2386 20.7614 10 18 10ZM9 15C9 10.0294 13.0294 6 18 6C22.9706 6 27 10.0294 27 15C27 19.9706 22.9706 24 18 24C13.0294 24 9 19.9706 9 15Z" fill="#4E5969"/>
<path fill-rule="evenodd" clip-rule="evenodd" d="M34 17C32.8954 17 32 17.8954 32 19C32 20.1046 32.8954 21 34 21C35.1046 21 36 20.1046 36 19C36 17.8954 35.1046 17 34 17ZM28 19C28 15.6863 30.6863 13 34 13C37.3137 13 40 15.6863 40 19C40 22.3137 37.3137 25 34 25C30.6863 25 28 22.3137 28 19Z" fill="#4E5969"/>
<path fill-rule="evenodd" clip-rule="evenodd" d="M4 34C4 29.5817 7.58172 26 12 26H24C28.4183 26 32 29.5817 32 34V40C32 41.1046 31.1046 42 30 42H6C4.89543 42 4 41.1046 4 40V34ZM12 30C9.79086 30 8 31.7909 8 34V38H28V34C28 31.7909 26.2091 30 24 30H12Z" fill="#4E5969"/>
<path fill-rule="evenodd" clip-rule="evenodd" d="M38 32H34V28H38C41.3137 28 44 30.6863 44 34V38C44 39.1046 43.1046 40 42 40H34V36H40V34C40 32.8954 39.1046 32 38 32Z" fill="#4E5969"/>
</svg>
