<svg width="48" height="48" viewBox="0 0 48 48" fill="none" xmlns="http://www.w3.org/2000/svg">
<path fill-rule="evenodd" clip-rule="evenodd" d="M8.34385 29.6095C10.3904 27.8771 13.1216 27 16 27H32C34.8784 27 37.6096 27.8771 39.6562 29.6095C41.7344 31.3688 43 33.9275 43 37V40C43 41.6569 41.6569 43 40 43H8C6.34315 43 5 41.6569 5 40V37C5 33.9275 6.26556 31.3688 8.34385 29.6095ZM10.9282 32.6625C9.74916 33.6606 9 35.102 9 37V39H39V37C39 35.102 38.2508 33.6606 37.0718 32.6625C35.861 31.6376 34.0921 31 32 31H16C13.9079 31 12.139 31.6376 10.9282 32.6625Z" fill="#4E5969"/>
<path fill-rule="evenodd" clip-rule="evenodd" d="M24 9C20.6863 9 18 11.6863 18 15C18 18.3137 20.6863 21 24 21C27.3137 21 30 18.3137 30 15C30 11.6863 27.3137 9 24 9ZM14 15C14 9.47715 18.4772 5 24 5C29.5228 5 34 9.47715 34 15C34 20.5228 29.5228 25 24 25C18.4772 25 14 20.5228 14 15Z" fill="#4E5969"/>
</svg>
