<svg width="40" height="40" viewBox="0 0 40 40" fill="none" xmlns="http://www.w3.org/2000/svg">
<rect width="40" height="40" rx="20" fill="#6241D4"/>
<path fill-rule="evenodd" clip-rule="evenodd" d="M11 11.5C11 10.6716 11.6716 10 12.5 10H27.5C28.3284 10 29 10.6716 29 11.5V28.5C29 29.3284 28.3284 30 27.5 30H12.5C11.6716 30 11 29.3284 11 28.5V11.5ZM13 12V28H27V12H13Z" fill="#4E5969"/>
<path fill-rule="evenodd" clip-rule="evenodd" d="M11 11.5C11 10.6716 11.6716 10 12.5 10H27.5C28.3284 10 29 10.6716 29 11.5V28.5C29 29.3284 28.3284 30 27.5 30H12.5C11.6716 30 11 29.3284 11 28.5V11.5ZM13 12V28H27V12H13Z" fill="white"/>
<path fill-rule="evenodd" clip-rule="evenodd" d="M24.2951 15.2929C24.8285 15.4358 25.1451 15.9841 25.0022 16.5176L22.9316 24.245C22.7887 24.7785 22.2403 25.0951 21.7069 24.9521C21.1734 24.8092 20.8568 24.2608 20.9998 23.7274L23.0703 16C23.2133 15.4665 23.7616 15.1499 24.2951 15.2929Z" fill="white"/>
<path fill-rule="evenodd" clip-rule="evenodd" d="M20.2426 15.7929C20.6332 16.1834 20.6332 16.8166 20.2426 17.2071L17.4142 20.0355L20.2426 22.864C20.6332 23.2545 20.6332 23.8877 20.2426 24.2782C19.8521 24.6687 19.219 24.6687 18.8284 24.2782L14.5858 20.0355L18.8284 15.7929C19.219 15.4024 19.8521 15.4024 20.2426 15.7929Z" fill="white"/>
</svg>
