<svg width="48" height="48" viewBox="0 0 48 48" fill="none" xmlns="http://www.w3.org/2000/svg">
<g clip-path="url(#clip0_1190_3640)">
<path opacity="0.01" fill-rule="evenodd" clip-rule="evenodd" d="M0 0H48V48H0V0Z" fill="#CCCCCC"/>
<path fill-rule="evenodd" clip-rule="evenodd" d="M7.99988 17.0002L17.7599 16.9999C18.8645 16.9999 19.7599 16.1044 19.7599 14.9999C19.7598 13.8953 18.8644 12.9999 17.7598 12.9999L5.99982 13.0003C4.89527 13.0003 3.99988 13.8957 3.99988 15.0003V42.0003C3.99988 43.1049 4.89531 44.0003 5.99988 44.0003H32.9999C34.1044 44.0003 34.9998 43.1049 34.9999 42.0004L35.0002 31.4096L31.0002 31.4095L30.9999 40.0003H7.99988V17.0002Z" fill="#4E5969"/>
<path fill-rule="evenodd" clip-rule="evenodd" d="M44.999 31.9995C44.999 33.1041 44.1036 33.9995 42.999 33.9995H39C37.8954 33.9995 37 33.1041 37 31.9995C37 30.8949 37.8954 29.9995 39 29.9995H40.999V5.99902H12.9986L12.9983 8.50648C12.9982 9.61105 12.1027 10.5064 10.9982 10.5063C9.89359 10.5062 8.99824 9.61068 8.99834 8.50611L8.99876 3.99884C8.99886 2.89434 9.89426 1.99902 10.9988 1.99902H42.999C44.1036 1.99902 44.999 2.89445 44.999 3.99902V31.9995Z" fill="#4E5969"/>
<path fill-rule="evenodd" clip-rule="evenodd" d="M34.4895 16.3458L24.4897 27.3453C23.7467 28.1626 22.4818 28.2228 21.6645 27.4798C20.8472 26.7368 20.787 25.4719 21.53 24.6546L31.5298 13.6551L34.4895 16.3458Z" fill="#4E5969"/>
<path fill-rule="evenodd" clip-rule="evenodd" d="M22 15.0002C22 13.8956 22.8954 13.0002 24 13.0002H33C34.1045 13.0002 35 13.8956 35 15.0002V24.0002C35 25.1047 34.1045 26.0002 33 26.0002C31.8954 26.0002 31 25.1047 31 24.0002V17.0002H24C22.8954 17.0002 22 16.1047 22 15.0002Z" fill="#4E5969"/>
</g>
<defs>
<clipPath id="clip0_1190_3640">
<rect width="48" height="48" fill="white"/>
</clipPath>
</defs>
</svg>
