<svg width="48" height="48" viewBox="0 0 48 48" fill="none" xmlns="http://www.w3.org/2000/svg">
<path fill-rule="evenodd" clip-rule="evenodd" d="M22.8888 40.8049C23.0878 39.7184 22.3684 38.6763 21.2819 38.4772C18.3926 37.9479 15.6303 36.5675 13.3934 34.3306C7.53553 28.4727 7.53553 18.9752 13.3934 13.1174C14.1744 12.3363 14.1744 11.07 13.3934 10.2889C12.6123 9.50788 11.346 9.50788 10.565 10.2889C3.14501 17.7089 3.14501 29.739 10.565 37.159C13.3941 39.9881 16.8989 41.7409 20.5612 42.4118C21.6476 42.6108 22.6898 41.8914 22.8888 40.8049Z" fill="#4E5969"/>
<path fill-rule="evenodd" clip-rule="evenodd" d="M36.0173 38.5696L37.4315 37.1554C44.8514 29.7355 44.8514 17.7053 37.4315 10.2854C34.6023 7.45623 31.0975 5.7035 27.4353 5.0326C26.3488 4.83356 25.3067 5.55298 25.1076 6.63947C24.9086 7.72596 25.628 8.76808 26.7145 8.96712C29.6039 9.49643 32.3661 10.8768 34.603 13.1138C40.4609 18.9717 40.4609 28.4691 34.603 34.327L33.1888 35.7412L36.0173 38.5696Z" fill="#4E5969"/>
<path d="M14.8105 11.982L11.9821 9.15354H14.8105V11.982Z" fill="#C4C4C4"/>
<path fill-rule="evenodd" clip-rule="evenodd" d="M16.8105 16.8104V7.15354H7.15369L16.8105 16.8104Z" fill="#4E5969"/>
<path d="M33.1918 36.02L36.0202 38.8484H33.1918V36.02Z" fill="#C4C4C4"/>
<path fill-rule="evenodd" clip-rule="evenodd" d="M31.1918 40.8484H40.8486L31.1918 31.1916V40.8484Z" fill="#4E5969"/>
</svg>
