<svg width="48" height="48" viewBox="0 0 48 48" fill="none" xmlns="http://www.w3.org/2000/svg">
<circle cx="24" cy="24" r="24" fill="#C9CDD4"/>
<path fill-rule="evenodd" clip-rule="evenodd" d="M21 19.5C21 17.8431 22.3431 16.5 24 16.5C25.6569 16.5 27 17.8431 27 19.5C27 21.1569 25.6569 22.5 24 22.5C22.3431 22.5 21 21.1569 21 19.5ZM24 14.5C21.2386 14.5 19 16.7386 19 19.5C19 22.2614 21.2386 24.5 24 24.5C26.7614 24.5 29 22.2614 29 19.5C29 16.7386 26.7614 14.5 24 14.5ZM20 25.5C18.5608 25.5 17.1952 25.9386 16.1719 26.8048C15.1328 27.6844 14.5 28.9637 14.5 30.5V32C14.5 32.8284 15.1716 33.5 16 33.5H32C32.8284 33.5 33.5 32.8284 33.5 32V30.5C33.5 28.9637 32.8672 27.6844 31.8281 26.8048C30.8048 25.9386 29.4392 25.5 28 25.5H20ZM16.5 30.5C16.5 29.551 16.8746 28.8303 17.4641 28.3313C18.0695 27.8188 18.9539 27.5 20 27.5H28C29.0461 27.5 29.9305 27.8188 30.5359 28.3313C31.1254 28.8303 31.5 29.551 31.5 30.5V31.5H16.5V30.5Z" fill="white"/>
</svg>
