<svg width="48" height="48" viewBox="0 0 48 48" fill="none" xmlns="http://www.w3.org/2000/svg">
<path fill-rule="evenodd" clip-rule="evenodd" d="M22 9.99986C22 8.89529 22.8954 7.99986 24 7.99986C32.8366 7.99986 40 15.1633 40 23.9999C40 28.3587 38.2543 32.3139 35.4285 35.1976C34.6554 35.9866 33.3891 35.9994 32.6002 35.2263C31.8113 34.4532 31.7984 33.187 32.5715 32.398C34.6944 30.2316 36 27.2702 36 23.9999C36 17.3724 30.6274 11.9999 24 11.9999C22.8954 11.9999 22 11.1044 22 9.99986Z" fill="#4E5969"/>
<path fill-rule="evenodd" clip-rule="evenodd" d="M22 31.9999C22 31.1758 22.9408 30.7054 23.6 31.1999L30.2667 36.1999C30.8 36.5999 30.8 37.3999 30.2667 37.7999L23.6 42.7999C22.9408 43.2943 22 42.8239 22 41.9999V31.9999Z" fill="#4E5969"/>
<path fill-rule="evenodd" clip-rule="evenodd" d="M24.4 4.19986C25.0592 3.70544 26 4.17582 26 4.99986V14.9999C26 15.8239 25.0592 16.2943 24.4 15.7999L17.7333 10.7999C17.2 10.3999 17.2 9.59986 17.7333 9.19986L24.4 4.19986Z" fill="#4E5969"/>
<path fill-rule="evenodd" clip-rule="evenodd" d="M15.3998 12.7734C16.1887 13.5465 16.2016 14.8128 15.4285 15.6017C13.3056 17.7681 12 20.7295 12 23.9999C12 30.6273 17.3726 35.9999 24 35.9999C25.1046 35.9999 26 36.8953 26 37.9999C26 39.1044 25.1046 39.9999 24 39.9999C15.1634 39.9999 8 32.8364 8 23.9999C8 19.641 9.74566 15.6858 12.5715 12.8021C13.3446 12.0132 14.6109 12.0003 15.3998 12.7734Z" fill="#4E5969"/>
</svg>
